solid OpenSCAD_Model
  facet normal 0.707107 0.707107 0
    outer loop
      vertex 12.1421 24 3
      vertex 8 28.1421 0
      vertex 8 28.1421 3
    endloop
  endfacet
  facet normal 0.707107 0.707107 0
    outer loop
      vertex 8 28.1421 0
      vertex 12.1421 24 3
      vertex 12.1421 24 0
    endloop
  endfacet
  facet normal 0 0 1
    outer loop
      vertex 27 94 3
      vertex 21 84 3
      vertex 26 84 3
    endloop
  endfacet
  facet normal 0 0 1
    outer loop
      vertex 16 79 3
      vertex 21 79 3
      vertex 21 84 3
    endloop
  endfacet
  facet normal 0 0 1
    outer loop
      vertex 21 79 3
      vertex 16 79 3
      vertex 21 74 3
    endloop
  endfacet
  facet normal 0 0 1
    outer loop
      vertex 21 74 3
      vertex 16 79 3
      vertex 21 29 3
    endloop
  endfacet
  facet normal 0 0 1
    outer loop
      vertex 16 24 3
      vertex 21 29 3
      vertex 16 79 3
    endloop
  endfacet
  facet normal 0 0 1
    outer loop
      vertex 21 24 3
      vertex 16 24 3
      vertex 21 19 3
    endloop
  endfacet
  facet normal -0 0 1
    outer loop
      vertex 16 85 3
      vertex 21 84 3
      vertex 16 94 3
    endloop
  endfacet
  facet normal -0 0 1
    outer loop
      vertex 16 94 3
      vertex 21 84 3
      vertex 27 94 3
    endloop
  endfacet
  facet normal 0 0 1
    outer loop
      vertex 33 19 3
      vertex 38.9289 21.0711 3
      vertex 33 24 3
    endloop
  endfacet
  facet normal 0 0 1
    outer loop
      vertex 38 29 3
      vertex 28 24 3
      vertex 33 24 3
    endloop
  endfacet
  facet normal 0 0 1
    outer loop
      vertex 28 24 3
      vertex 26 24 3
      vertex 28 19 3
    endloop
  endfacet
  facet normal -0 0 1
    outer loop
      vertex 21 29 3
      vertex 28 24 3
      vertex 38 29 3
    endloop
  endfacet
  facet normal 0 0 1
    outer loop
      vertex 28 24 3
      vertex 21 29 3
      vertex 26 24 3
    endloop
  endfacet
  facet normal 0 0 1
    outer loop
      vertex 26 24 3
      vertex 21 29 3
      vertex 21 24 3
    endloop
  endfacet
  facet normal 0 0 1
    outer loop
      vertex 27 94 3
      vertex 33 94 3
      vertex 33 97.8579 3
    endloop
  endfacet
  facet normal 0 0 1
    outer loop
      vertex 30.0711 109.071 3
      vertex 33 97.8579 3
      vertex 37.1421 102 3
    endloop
  endfacet
  facet normal -0 0 1
    outer loop
      vertex 27 98 3
      vertex 33 97.8579 3
      vertex 30.0711 109.071 3
    endloop
  endfacet
  facet normal 0 0 1
    outer loop
      vertex 27 94 3
      vertex 33 97.8579 3
      vertex 27 98 3
    endloop
  endfacet
  facet normal 0 0 1
    outer loop
      vertex 33 94 3
      vertex 28 84 3
      vertex 33 84 3
    endloop
  endfacet
  facet normal 0 -0 1
    outer loop
      vertex 28 84 3
      vertex 33 94 3
      vertex 27 94 3
    endloop
  endfacet
  facet normal 0 -0 1
    outer loop
      vertex 27 98 3
      vertex 30.0711 109.071 3
      vertex 23 102 3
    endloop
  endfacet
  facet normal 0 0 1
    outer loop
      vertex 38.9289 21.0711 3
      vertex 33 19 3
      vertex 35.1421 6 3
    endloop
  endfacet
  facet normal 0 0 1
    outer loop
      vertex 33 19 3
      vertex 28.0711 13.0711 3
      vertex 35.1421 6 3
    endloop
  endfacet
  facet normal -0 0 1
    outer loop
      vertex 28 19 3
      vertex 28.0711 13.0711 3
      vertex 33 19 3
    endloop
  endfacet
  facet normal 0 0 1
    outer loop
      vertex 26 19 3
      vertex 28 19 3
      vertex 26 24 3
    endloop
  endfacet
  facet normal 0 0 1
    outer loop
      vertex 28 19 3
      vertex 26 19 3
      vertex 28.0711 13.0711 3
    endloop
  endfacet
  facet normal -0 0 1
    outer loop
      vertex 21 19 3
      vertex 28.0711 13.0711 3
      vertex 26 19 3
    endloop
  endfacet
  facet normal 0 0 1
    outer loop
      vertex 28.0711 13.0711 3
      vertex 21 19 3
      vertex 21 6 3
    endloop
  endfacet
  facet normal 0 0 1
    outer loop
      vertex 52 94 3
      vertex 50.1421 85 3
      vertex 52 85 3
    endloop
  endfacet
  facet normal 0 0 1
    outer loop
      vertex 52 94 3
      vertex 46 89.1421 3
      vertex 50.1421 85 3
    endloop
  endfacet
  facet normal -0 0 1
    outer loop
      vertex 33 94 3
      vertex 46 89.1421 3
      vertex 52 94 3
    endloop
  endfacet
  facet normal 0 0 1
    outer loop
      vertex 33 94 3
      vertex 38.9289 82.0711 3
      vertex 46 89.1421 3
    endloop
  endfacet
  facet normal -0 0 1
    outer loop
      vertex 33 84 3
      vertex 38.9289 82.0711 3
      vertex 33 94 3
    endloop
  endfacet
  facet normal 0 0 1
    outer loop
      vertex 33 79 3
      vertex 38.9289 82.0711 3
      vertex 33 84 3
    endloop
  endfacet
  facet normal 0 0 1
    outer loop
      vertex 38.9289 82.0711 3
      vertex 33 79 3
      vertex 38 74 3
    endloop
  endfacet
  facet normal -0 0 1
    outer loop
      vertex 28 79 3
      vertex 38 74 3
      vertex 33 79 3
    endloop
  endfacet
  facet normal 0 0 1
    outer loop
      vertex 26 84 3
      vertex 28 84 3
      vertex 27 94 3
    endloop
  endfacet
  facet normal 0 0 1
    outer loop
      vertex 28 84 3
      vertex 26 84 3
      vertex 28 79 3
    endloop
  endfacet
  facet normal 0 0 1
    outer loop
      vertex 26 79 3
      vertex 28 79 3
      vertex 26 84 3
    endloop
  endfacet
  facet normal 0 0 1
    outer loop
      vertex 21 74 3
      vertex 28 79 3
      vertex 26 79 3
    endloop
  endfacet
  facet normal 0 0 1
    outer loop
      vertex 21 74 3
      vertex 26 79 3
      vertex 21 79 3
    endloop
  endfacet
  facet normal 0 0 1
    outer loop
      vertex 28 79 3
      vertex 21 74 3
      vertex 38 74 3
    endloop
  endfacet
  facet normal 0 0 1
    outer loop
      vertex 52 79 3
      vertex 46 75 3
      vertex 49 69 3
    endloop
  endfacet
  facet normal 0 0 1
    outer loop
      vertex 38 74 3
      vertex 46 75 3
      vertex 38.9289 82.0711 3
    endloop
  endfacet
  facet normal 0 0 1
    outer loop
      vertex 38 69 3
      vertex 46 75 3
      vertex 38 74 3
    endloop
  endfacet
  facet normal 0 0 1
    outer loop
      vertex 46 75 3
      vertex 38 69 3
      vertex 49 69 3
    endloop
  endfacet
  facet normal -0 0 1
    outer loop
      vertex 49 34 3
      vertex 52 24 3
      vertex 52 79 3
    endloop
  endfacet
  facet normal 0 0 1
    outer loop
      vertex 46 75 3
      vertex 52 79 3
      vertex 50 79 3
    endloop
  endfacet
  facet normal 0 0 1
    outer loop
      vertex 49 34 3
      vertex 52 79 3
      vertex 49 69 3
    endloop
  endfacet
  facet normal -0 0 1
    outer loop
      vertex 46 28.1421 3
      vertex 52 24 3
      vertex 49 34 3
    endloop
  endfacet
  facet normal 0 0 1
    outer loop
      vertex 52 24 3
      vertex 46 28.1421 3
      vertex 50.1421 24 3
    endloop
  endfacet
  facet normal -0 0 1
    outer loop
      vertex 38 34 3
      vertex 46 28.1421 3
      vertex 49 34 3
    endloop
  endfacet
  facet normal 0 0 1
    outer loop
      vertex 46 28.1421 3
      vertex 38 34 3
      vertex 38 29 3
    endloop
  endfacet
  facet normal 0 0 1
    outer loop
      vertex 46 14 3
      vertex 52 18 3
      vertex 50 18 3
    endloop
  endfacet
  facet normal 0 0 1
    outer loop
      vertex 52 18 3
      vertex 46 14 3
      vertex 52 0 3
    endloop
  endfacet
  facet normal 0 0 1
    outer loop
      vertex 35.1421 6 3
      vertex 46 14 3
      vertex 38.9289 21.0711 3
    endloop
  endfacet
  facet normal 0 0 1
    outer loop
      vertex 46 28.1421 3
      vertex 38 29 3
      vertex 38.9289 21.0711 3
    endloop
  endfacet
  facet normal -0 0 1
    outer loop
      vertex 33 24 3
      vertex 38.9289 21.0711 3
      vertex 38 29 3
    endloop
  endfacet
  facet normal 0 0 1
    outer loop
      vertex 46 14 3
      vertex 35.1421 6 3
      vertex 52 0 3
    endloop
  endfacet
  facet normal 0 0 1
    outer loop
      vertex 31 0 3
      vertex 35.1421 6 3
      vertex 31 1.85786 3
    endloop
  endfacet
  facet normal 0 0 1
    outer loop
      vertex 35.1421 6 3
      vertex 31 0 3
      vertex 52 0 3
    endloop
  endfacet
  facet normal 0 0 1
    outer loop
      vertex 16 0 3
      vertex 25 2 3
      vertex 21 6 3
    endloop
  endfacet
  facet normal 0 0 1
    outer loop
      vertex 16 79 3
      vertex 21 84 3
      vertex 16 85 3
    endloop
  endfacet
  facet normal 0 0 1
    outer loop
      vertex 21 29 3
      vertex 16 24 3
      vertex 21 24 3
    endloop
  endfacet
  facet normal 0 0 1
    outer loop
      vertex 16 18 3
      vertex 21 19 3
      vertex 16 24 3
    endloop
  endfacet
  facet normal 0 0 1
    outer loop
      vertex 21 19 3
      vertex 16 18 3
      vertex 21 6 3
    endloop
  endfacet
  facet normal 0 0 1
    outer loop
      vertex 25 2 3
      vertex 16 0 3
      vertex 25 0 3
    endloop
  endfacet
  facet normal 0 0 1
    outer loop
      vertex 16 0 3
      vertex 21 6 3
      vertex 16 18 3
    endloop
  endfacet
  facet normal -0 0 1
    outer loop
      vertex 12.1421 24 3
      vertex 16 18 3
      vertex 16 24 3
    endloop
  endfacet
  facet normal 0 0 1
    outer loop
      vertex 12.1421 24 3
      vertex 12 18 3
      vertex 16 18 3
    endloop
  endfacet
  facet normal 0 0 1
    outer loop
      vertex 0.928932 21.0711 3
      vertex 12.1421 24 3
      vertex 8 28.1421 3
    endloop
  endfacet
  facet normal 0 0 1
    outer loop
      vertex 12.1421 24 3
      vertex 0.928932 21.0711 3
      vertex 12 18 3
    endloop
  endfacet
  facet normal 0 0 1
    outer loop
      vertex 12 18 3
      vertex 0.928932 21.0711 3
      vertex 8 14 3
    endloop
  endfacet
  facet normal -0 0 1
    outer loop
      vertex 12.1421 85 3
      vertex 16 79 3
      vertex 16 85 3
    endloop
  endfacet
  facet normal 0 0 1
    outer loop
      vertex 12.1421 85 3
      vertex 12 79 3
      vertex 16 79 3
    endloop
  endfacet
  facet normal 0 0 1
    outer loop
      vertex 0.928932 82.0711 3
      vertex 12.1421 85 3
      vertex 8 89.1421 3
    endloop
  endfacet
  facet normal 0 0 1
    outer loop
      vertex 12.1421 85 3
      vertex 0.928932 82.0711 3
      vertex 12 79 3
    endloop
  endfacet
  facet normal 0 0 1
    outer loop
      vertex 12 79 3
      vertex 0.928932 82.0711 3
      vertex 8 75 3
    endloop
  endfacet
  facet normal -0.707107 0.707107 0
    outer loop
      vertex 0.928932 21.0711 0
      vertex 8 28.1421 3
      vertex 8 28.1421 0
    endloop
  endfacet
  facet normal -0.707107 0.707107 0
    outer loop
      vertex 8 28.1421 3
      vertex 0.928932 21.0711 0
      vertex 0.928932 21.0711 3
    endloop
  endfacet
  facet normal -0.707107 -0.707107 0
    outer loop
      vertex 8 14 0
      vertex 0.928932 21.0711 3
      vertex 0.928932 21.0711 0
    endloop
  endfacet
  facet normal -0.707107 -0.707107 0
    outer loop
      vertex 0.928932 21.0711 3
      vertex 8 14 0
      vertex 8 14 3
    endloop
  endfacet
  facet normal 0 0 -1
    outer loop
      vertex 46 14 0
      vertex 52 18 0
      vertex 52 0 0
    endloop
  endfacet
  facet normal -0 0 -1
    outer loop
      vertex 52 18 0
      vertex 46 14 0
      vertex 50 18 0
    endloop
  endfacet
  facet normal 0 0 -1
    outer loop
      vertex 35.1421 6 0
      vertex 46 14 0
      vertex 52 0 0
    endloop
  endfacet
  facet normal 0 0 -1
    outer loop
      vertex 28.0711 13.0711 0
      vertex 38.9289 21.0711 0
      vertex 35.1421 6 0
    endloop
  endfacet
  facet normal -0 0 -1
    outer loop
      vertex 46 14 0
      vertex 35.1421 6 0
      vertex 38.9289 21.0711 0
    endloop
  endfacet
  facet normal 0 0 -1
    outer loop
      vertex 31 0 0
      vertex 35.1421 6 0
      vertex 52 0 0
    endloop
  endfacet
  facet normal 0 0 -1
    outer loop
      vertex 35.1421 6 0
      vertex 31 0 0
      vertex 31 1.85786 0
    endloop
  endfacet
  facet normal 0 0 -1
    outer loop
      vertex 46 28.1421 0
      vertex 52 24 0
      vertex 50.1421 24 0
    endloop
  endfacet
  facet normal 0 0 -1
    outer loop
      vertex 52 24 0
      vertex 49 34 0
      vertex 52 79 0
    endloop
  endfacet
  facet normal 0 0 -1
    outer loop
      vertex 52 79 0
      vertex 49 34 0
      vertex 49 69 0
    endloop
  endfacet
  facet normal 0 0 -1
    outer loop
      vertex 52 24 0
      vertex 46 28.1421 0
      vertex 49 34 0
    endloop
  endfacet
  facet normal 0 0 -1
    outer loop
      vertex 38 29 0
      vertex 46 28.1421 0
      vertex 38.9289 21.0711 0
    endloop
  endfacet
  facet normal 0 0 -1
    outer loop
      vertex 38 34 0
      vertex 46 28.1421 0
      vertex 38 29 0
    endloop
  endfacet
  facet normal 0 0 -1
    outer loop
      vertex 46 28.1421 0
      vertex 38 34 0
      vertex 49 34 0
    endloop
  endfacet
  facet normal 0 0 -1
    outer loop
      vertex 46 75 0
      vertex 52 79 0
      vertex 49 69 0
    endloop
  endfacet
  facet normal -0 0 -1
    outer loop
      vertex 52 79 0
      vertex 46 75 0
      vertex 50 79 0
    endloop
  endfacet
  facet normal 0 0 -1
    outer loop
      vertex 38 69 0
      vertex 46 75 0
      vertex 49 69 0
    endloop
  endfacet
  facet normal 0 0 -1
    outer loop
      vertex 46 75 0
      vertex 38 69 0
      vertex 38 74 0
    endloop
  endfacet
  facet normal 0 0 -1
    outer loop
      vertex 50.1421 85 0
      vertex 52 94 0
      vertex 52 85 0
    endloop
  endfacet
  facet normal 0 0 -1
    outer loop
      vertex 46 89.1421 0
      vertex 52 94 0
      vertex 50.1421 85 0
    endloop
  endfacet
  facet normal -0 0 -1
    outer loop
      vertex 46 75 0
      vertex 38 74 0
      vertex 38.9289 82.0711 0
    endloop
  endfacet
  facet normal 0 0 -1
    outer loop
      vertex 46 89.1421 0
      vertex 33 94 0
      vertex 52 94 0
    endloop
  endfacet
  facet normal 0 0 -1
    outer loop
      vertex 38.9289 82.0711 0
      vertex 33 94 0
      vertex 46 89.1421 0
    endloop
  endfacet
  facet normal 0 0 -1
    outer loop
      vertex 21 74 0
      vertex 38.9289 82.0711 0
      vertex 38 74 0
    endloop
  endfacet
  facet normal 0 0 -1
    outer loop
      vertex 27 94 0
      vertex 33 97.8579 0
      vertex 33 94 0
    endloop
  endfacet
  facet normal -0 0 -1
    outer loop
      vertex 33 97.8579 0
      vertex 27 94 0
      vertex 27 98 0
    endloop
  endfacet
  facet normal 0 0 -1
    outer loop
      vertex 38.9289 82.0711 0
      vertex 27 94 0
      vertex 33 94 0
    endloop
  endfacet
  facet normal -0 0 -1
    outer loop
      vertex 38.9289 82.0711 0
      vertex 21 74 0
      vertex 27 94 0
    endloop
  endfacet
  facet normal 0 0 -1
    outer loop
      vertex 16 24 0
      vertex 21 29 0
      vertex 16 18 0
    endloop
  endfacet
  facet normal -0 0 -1
    outer loop
      vertex 21 29 0
      vertex 16 24 0
      vertex 21 74 0
    endloop
  endfacet
  facet normal 0 0 -1
    outer loop
      vertex 16 79 0
      vertex 21 74 0
      vertex 16 24 0
    endloop
  endfacet
  facet normal 0 0 -1
    outer loop
      vertex 16 85 0
      vertex 21 74 0
      vertex 16 79 0
    endloop
  endfacet
  facet normal 0 0 -1
    outer loop
      vertex 21 74 0
      vertex 16 85 0
      vertex 27 94 0
    endloop
  endfacet
  facet normal -0 0 -1
    outer loop
      vertex 27 94 0
      vertex 16 85 0
      vertex 16 94 0
    endloop
  endfacet
  facet normal 0 0 -1
    outer loop
      vertex 16 79 0
      vertex 12.1421 85 0
      vertex 16 85 0
    endloop
  endfacet
  facet normal 0 0 -1
    outer loop
      vertex 12 79 0
      vertex 12.1421 85 0
      vertex 16 79 0
    endloop
  endfacet
  facet normal 0 0 -1
    outer loop
      vertex 0.928932 82.0711 0
      vertex 12 79 0
      vertex 8 75 0
    endloop
  endfacet
  facet normal 0 0 -1
    outer loop
      vertex 12 79 0
      vertex 0.928932 82.0711 0
      vertex 12.1421 85 0
    endloop
  endfacet
  facet normal -0 0 -1
    outer loop
      vertex 12.1421 85 0
      vertex 0.928932 82.0711 0
      vertex 8 89.1421 0
    endloop
  endfacet
  facet normal 0 0 -1
    outer loop
      vertex 16 18 0
      vertex 12.1421 24 0
      vertex 16 24 0
    endloop
  endfacet
  facet normal 0 0 -1
    outer loop
      vertex 12 18 0
      vertex 12.1421 24 0
      vertex 16 18 0
    endloop
  endfacet
  facet normal 0 0 -1
    outer loop
      vertex 0.928932 21.0711 0
      vertex 12 18 0
      vertex 8 14 0
    endloop
  endfacet
  facet normal 0 0 -1
    outer loop
      vertex 12 18 0
      vertex 0.928932 21.0711 0
      vertex 12.1421 24 0
    endloop
  endfacet
  facet normal -0 0 -1
    outer loop
      vertex 12.1421 24 0
      vertex 0.928932 21.0711 0
      vertex 8 28.1421 0
    endloop
  endfacet
  facet normal 0 0 -1
    outer loop
      vertex 16 0 0
      vertex 25 2 0
      vertex 25 0 0
    endloop
  endfacet
  facet normal 0 0 -1
    outer loop
      vertex 16 18 0
      vertex 21 6 0
      vertex 16 0 0
    endloop
  endfacet
  facet normal 0 0 -1
    outer loop
      vertex 28.0711 13.0711 0
      vertex 16 18 0
      vertex 21 29 0
    endloop
  endfacet
  facet normal -0 0 -1
    outer loop
      vertex 25 2 0
      vertex 16 0 0
      vertex 21 6 0
    endloop
  endfacet
  facet normal 0 0 -1
    outer loop
      vertex 21 29 0
      vertex 38.9289 21.0711 0
      vertex 28.0711 13.0711 0
    endloop
  endfacet
  facet normal 0 0 -1
    outer loop
      vertex 16 18 0
      vertex 28.0711 13.0711 0
      vertex 21 6 0
    endloop
  endfacet
  facet normal 0 0 -1
    outer loop
      vertex 38.9289 21.0711 0
      vertex 21 29 0
      vertex 38 29 0
    endloop
  endfacet
  facet normal -0 0 -1
    outer loop
      vertex 37.1421 102 0
      vertex 33 97.8579 0
      vertex 30.0711 109.071 0
    endloop
  endfacet
  facet normal 0 0 -1
    outer loop
      vertex 33 97.8579 0
      vertex 27 98 0
      vertex 30.0711 109.071 0
    endloop
  endfacet
  facet normal 0 0 -1
    outer loop
      vertex 30.0711 109.071 0
      vertex 27 98 0
      vertex 23 102 0
    endloop
  endfacet
  facet normal 0.707107 -0.707107 0
    outer loop
      vertex 8 14 3
      vertex 12 18 0
      vertex 12 18 3
    endloop
  endfacet
  facet normal 0.707107 -0.707107 0
    outer loop
      vertex 12 18 0
      vertex 8 14 3
      vertex 8 14 0
    endloop
  endfacet
  facet normal -1 0 0
    outer loop
      vertex 16 0 0
      vertex 16 18 3
      vertex 16 18 0
    endloop
  endfacet
  facet normal -1 -0 0
    outer loop
      vertex 16 18 3
      vertex 16 0 0
      vertex 16 0 3
    endloop
  endfacet
  facet normal -1 0 0
    outer loop
      vertex 16 85 0
      vertex 16 94 3
      vertex 16 94 0
    endloop
  endfacet
  facet normal -1 -0 0
    outer loop
      vertex 16 94 3
      vertex 16 85 0
      vertex 16 85 3
    endloop
  endfacet
  facet normal -1 0 0
    outer loop
      vertex 16 24 0
      vertex 16 79 3
      vertex 16 79 0
    endloop
  endfacet
  facet normal -1 -0 0
    outer loop
      vertex 16 79 3
      vertex 16 24 0
      vertex 16 24 3
    endloop
  endfacet
  facet normal 0 1 -0
    outer loop
      vertex 16 24 0
      vertex 12.1421 24 3
      vertex 16 24 3
    endloop
  endfacet
  facet normal 0 1 0
    outer loop
      vertex 12.1421 24 3
      vertex 16 24 0
      vertex 12.1421 24 0
    endloop
  endfacet
  facet normal 0 -1 0
    outer loop
      vertex 12 18 0
      vertex 16 18 3
      vertex 12 18 3
    endloop
  endfacet
  facet normal 0 -1 -0
    outer loop
      vertex 16 18 3
      vertex 12 18 0
      vertex 16 18 0
    endloop
  endfacet
  facet normal 0.707107 0.707107 0
    outer loop
      vertex 12.1421 85 3
      vertex 8 89.1421 0
      vertex 8 89.1421 3
    endloop
  endfacet
  facet normal 0.707107 0.707107 0
    outer loop
      vertex 8 89.1421 0
      vertex 12.1421 85 3
      vertex 12.1421 85 0
    endloop
  endfacet
  facet normal -0.707107 0.707107 0
    outer loop
      vertex 0.928932 82.0711 0
      vertex 8 89.1421 3
      vertex 8 89.1421 0
    endloop
  endfacet
  facet normal -0.707107 0.707107 0
    outer loop
      vertex 8 89.1421 3
      vertex 0.928932 82.0711 0
      vertex 0.928932 82.0711 3
    endloop
  endfacet
  facet normal -0.707107 -0.707107 0
    outer loop
      vertex 8 75 0
      vertex 0.928932 82.0711 3
      vertex 0.928932 82.0711 0
    endloop
  endfacet
  facet normal -0.707107 -0.707107 0
    outer loop
      vertex 0.928932 82.0711 3
      vertex 8 75 0
      vertex 8 75 3
    endloop
  endfacet
  facet normal 0.707107 -0.707107 0
    outer loop
      vertex 8 75 3
      vertex 12 79 0
      vertex 12 79 3
    endloop
  endfacet
  facet normal 0.707107 -0.707107 0
    outer loop
      vertex 12 79 0
      vertex 8 75 3
      vertex 8 75 0
    endloop
  endfacet
  facet normal 0 1 -0
    outer loop
      vertex 16 85 0
      vertex 12.1421 85 3
      vertex 16 85 3
    endloop
  endfacet
  facet normal 0 1 0
    outer loop
      vertex 12.1421 85 3
      vertex 16 85 0
      vertex 12.1421 85 0
    endloop
  endfacet
  facet normal 0 -1 0
    outer loop
      vertex 12 79 0
      vertex 16 79 3
      vertex 12 79 3
    endloop
  endfacet
  facet normal 0 -1 -0
    outer loop
      vertex 16 79 3
      vertex 12 79 0
      vertex 16 79 0
    endloop
  endfacet
  facet normal 0.707107 -0.707107 0
    outer loop
      vertex 33 97.8579 3
      vertex 37.1421 102 0
      vertex 37.1421 102 3
    endloop
  endfacet
  facet normal 0.707107 -0.707107 0
    outer loop
      vertex 37.1421 102 0
      vertex 33 97.8579 3
      vertex 33 97.8579 0
    endloop
  endfacet
  facet normal 0.707107 0.707107 0
    outer loop
      vertex 37.1421 102 3
      vertex 30.0711 109.071 0
      vertex 30.0711 109.071 3
    endloop
  endfacet
  facet normal 0.707107 0.707107 0
    outer loop
      vertex 30.0711 109.071 0
      vertex 37.1421 102 3
      vertex 37.1421 102 0
    endloop
  endfacet
  facet normal -0.707107 0.707107 0
    outer loop
      vertex 23 102 0
      vertex 30.0711 109.071 3
      vertex 30.0711 109.071 0
    endloop
  endfacet
  facet normal -0.707107 0.707107 0
    outer loop
      vertex 30.0711 109.071 3
      vertex 23 102 0
      vertex 23 102 3
    endloop
  endfacet
  facet normal -0.707107 -0.707107 0
    outer loop
      vertex 27 98 0
      vertex 23 102 3
      vertex 23 102 0
    endloop
  endfacet
  facet normal -0.707107 -0.707107 0
    outer loop
      vertex 23 102 3
      vertex 27 98 0
      vertex 27 98 3
    endloop
  endfacet
  facet normal 1 -0 0
    outer loop
      vertex 33 94 3
      vertex 33 97.8579 0
      vertex 33 97.8579 3
    endloop
  endfacet
  facet normal 1 0 0
    outer loop
      vertex 33 97.8579 0
      vertex 33 94 3
      vertex 33 94 0
    endloop
  endfacet
  facet normal -1 0 0
    outer loop
      vertex 27 94 0
      vertex 27 98 3
      vertex 27 98 0
    endloop
  endfacet
  facet normal -1 -0 0
    outer loop
      vertex 27 98 3
      vertex 27 94 0
      vertex 27 94 3
    endloop
  endfacet
  facet normal -1 0 0
    outer loop
      vertex 21 19 3
      vertex 21 24 8
      vertex 21 24 3
    endloop
  endfacet
  facet normal -1 -0 0
    outer loop
      vertex 21 24 8
      vertex 21 19 3
      vertex 21 19 8
    endloop
  endfacet
  facet normal -0 0 1
    outer loop
      vertex 21 24 8
      vertex 26 19 8
      vertex 26 24 8
    endloop
  endfacet
  facet normal 0 0 1
    outer loop
      vertex 26 19 8
      vertex 21 24 8
      vertex 21 19 8
    endloop
  endfacet
  facet normal 1 -0 0
    outer loop
      vertex 26 19 8
      vertex 26 24 3
      vertex 26 24 8
    endloop
  endfacet
  facet normal 1 0 0
    outer loop
      vertex 26 24 3
      vertex 26 19 8
      vertex 26 19 3
    endloop
  endfacet
  facet normal 0 1 -0
    outer loop
      vertex 26 24 3
      vertex 21 24 8
      vertex 26 24 8
    endloop
  endfacet
  facet normal 0 1 0
    outer loop
      vertex 21 24 8
      vertex 26 24 3
      vertex 21 24 3
    endloop
  endfacet
  facet normal 0 -1 0
    outer loop
      vertex 21 19 3
      vertex 26 19 8
      vertex 21 19 8
    endloop
  endfacet
  facet normal 0 -1 -0
    outer loop
      vertex 26 19 8
      vertex 21 19 3
      vertex 26 19 3
    endloop
  endfacet
  facet normal -1 0 0
    outer loop
      vertex 28 19 3
      vertex 28 24 8
      vertex 28 24 3
    endloop
  endfacet
  facet normal -1 -0 0
    outer loop
      vertex 28 24 8
      vertex 28 19 3
      vertex 28 19 8
    endloop
  endfacet
  facet normal -0 0 1
    outer loop
      vertex 28 24 8
      vertex 33 19 8
      vertex 33 24 8
    endloop
  endfacet
  facet normal 0 0 1
    outer loop
      vertex 33 19 8
      vertex 28 24 8
      vertex 28 19 8
    endloop
  endfacet
  facet normal 1 -0 0
    outer loop
      vertex 33 19 8
      vertex 33 24 3
      vertex 33 24 8
    endloop
  endfacet
  facet normal 1 0 0
    outer loop
      vertex 33 24 3
      vertex 33 19 8
      vertex 33 19 3
    endloop
  endfacet
  facet normal 0 1 -0
    outer loop
      vertex 33 24 3
      vertex 28 24 8
      vertex 33 24 8
    endloop
  endfacet
  facet normal 0 1 0
    outer loop
      vertex 28 24 8
      vertex 33 24 3
      vertex 28 24 3
    endloop
  endfacet
  facet normal 0 -1 0
    outer loop
      vertex 28 19 3
      vertex 33 19 8
      vertex 28 19 8
    endloop
  endfacet
  facet normal 0 -1 -0
    outer loop
      vertex 33 19 8
      vertex 28 19 3
      vertex 33 19 3
    endloop
  endfacet
  facet normal -1 0 0
    outer loop
      vertex 21 79 3
      vertex 21 84 8
      vertex 21 84 3
    endloop
  endfacet
  facet normal -1 -0 0
    outer loop
      vertex 21 84 8
      vertex 21 79 3
      vertex 21 79 8
    endloop
  endfacet
  facet normal -0 0 1
    outer loop
      vertex 21 84 8
      vertex 26 79 8
      vertex 26 84 8
    endloop
  endfacet
  facet normal 0 0 1
    outer loop
      vertex 26 79 8
      vertex 21 84 8
      vertex 21 79 8
    endloop
  endfacet
  facet normal 1 -0 0
    outer loop
      vertex 26 79 8
      vertex 26 84 3
      vertex 26 84 8
    endloop
  endfacet
  facet normal 1 0 0
    outer loop
      vertex 26 84 3
      vertex 26 79 8
      vertex 26 79 3
    endloop
  endfacet
  facet normal 0 -1 0
    outer loop
      vertex 21 79 3
      vertex 26 79 8
      vertex 21 79 8
    endloop
  endfacet
  facet normal 0 -1 -0
    outer loop
      vertex 26 79 8
      vertex 21 79 3
      vertex 26 79 3
    endloop
  endfacet
  facet normal 0 1 -0
    outer loop
      vertex 26 84 3
      vertex 21 84 8
      vertex 26 84 8
    endloop
  endfacet
  facet normal 0 1 0
    outer loop
      vertex 21 84 8
      vertex 26 84 3
      vertex 21 84 3
    endloop
  endfacet
  facet normal -1 0 0
    outer loop
      vertex 28 79 3
      vertex 28 84 8
      vertex 28 84 3
    endloop
  endfacet
  facet normal -1 -0 0
    outer loop
      vertex 28 84 8
      vertex 28 79 3
      vertex 28 79 8
    endloop
  endfacet
  facet normal -0 0 1
    outer loop
      vertex 28 84 8
      vertex 33 79 8
      vertex 33 84 8
    endloop
  endfacet
  facet normal 0 0 1
    outer loop
      vertex 33 79 8
      vertex 28 84 8
      vertex 28 79 8
    endloop
  endfacet
  facet normal 1 -0 0
    outer loop
      vertex 33 79 8
      vertex 33 84 3
      vertex 33 84 8
    endloop
  endfacet
  facet normal 1 0 0
    outer loop
      vertex 33 84 3
      vertex 33 79 8
      vertex 33 79 3
    endloop
  endfacet
  facet normal 0 -1 0
    outer loop
      vertex 28 79 3
      vertex 33 79 8
      vertex 28 79 8
    endloop
  endfacet
  facet normal 0 -1 -0
    outer loop
      vertex 33 79 8
      vertex 28 79 3
      vertex 33 79 3
    endloop
  endfacet
  facet normal 0 1 -0
    outer loop
      vertex 33 84 3
      vertex 28 84 8
      vertex 33 84 8
    endloop
  endfacet
  facet normal 0 1 0
    outer loop
      vertex 28 84 8
      vertex 33 84 3
      vertex 28 84 3
    endloop
  endfacet
  facet normal 1 -0 0
    outer loop
      vertex 52 0 3
      vertex 52 18 0
      vertex 52 18 3
    endloop
  endfacet
  facet normal 1 0 0
    outer loop
      vertex 52 18 0
      vertex 52 0 3
      vertex 52 0 0
    endloop
  endfacet
  facet normal 1 -0 0
    outer loop
      vertex 52 85 3
      vertex 52 94 0
      vertex 52 94 3
    endloop
  endfacet
  facet normal 1 0 0
    outer loop
      vertex 52 94 0
      vertex 52 85 3
      vertex 52 85 0
    endloop
  endfacet
  facet normal 1 -0 0
    outer loop
      vertex 52 24 3
      vertex 52 79 0
      vertex 52 79 3
    endloop
  endfacet
  facet normal 1 0 0
    outer loop
      vertex 52 79 0
      vertex 52 24 3
      vertex 52 24 0
    endloop
  endfacet
  facet normal 0 -1 0
    outer loop
      vertex 16 0 0
      vertex 25 0 3
      vertex 16 0 3
    endloop
  endfacet
  facet normal 0 -1 -0
    outer loop
      vertex 25 0 3
      vertex 16 0 0
      vertex 25 0 0
    endloop
  endfacet
  facet normal 0 -1 0
    outer loop
      vertex 31 0 0
      vertex 52 0 3
      vertex 31 0 3
    endloop
  endfacet
  facet normal 0 -1 -0
    outer loop
      vertex 52 0 3
      vertex 31 0 0
      vertex 52 0 0
    endloop
  endfacet
  facet normal 0 1 -0
    outer loop
      vertex 52 94 0
      vertex 33 94 3
      vertex 52 94 3
    endloop
  endfacet
  facet normal 0 1 0
    outer loop
      vertex 33 94 3
      vertex 52 94 0
      vertex 33 94 0
    endloop
  endfacet
  facet normal 0 1 -0
    outer loop
      vertex 27 94 0
      vertex 16 94 3
      vertex 27 94 3
    endloop
  endfacet
  facet normal 0 1 0
    outer loop
      vertex 16 94 3
      vertex 27 94 0
      vertex 16 94 0
    endloop
  endfacet
  facet normal -0.707107 0.707107 0
    outer loop
      vertex 31 1.85786 0
      vertex 35.1421 6 3
      vertex 35.1421 6 0
    endloop
  endfacet
  facet normal -0.707107 0.707107 0
    outer loop
      vertex 35.1421 6 3
      vertex 31 1.85786 0
      vertex 31 1.85786 3
    endloop
  endfacet
  facet normal -0.707107 -0.707107 0
    outer loop
      vertex 35.1421 6 0
      vertex 28.0711 13.0711 3
      vertex 28.0711 13.0711 0
    endloop
  endfacet
  facet normal -0.707107 -0.707107 0
    outer loop
      vertex 28.0711 13.0711 3
      vertex 35.1421 6 0
      vertex 35.1421 6 3
    endloop
  endfacet
  facet normal 0.707107 -0.707107 0
    outer loop
      vertex 21 6 3
      vertex 28.0711 13.0711 0
      vertex 28.0711 13.0711 3
    endloop
  endfacet
  facet normal 0.707107 -0.707107 0
    outer loop
      vertex 28.0711 13.0711 0
      vertex 21 6 3
      vertex 21 6 0
    endloop
  endfacet
  facet normal 0.707107 0.707107 0
    outer loop
      vertex 25 2 3
      vertex 21 6 0
      vertex 21 6 3
    endloop
  endfacet
  facet normal 0.707107 0.707107 0
    outer loop
      vertex 21 6 0
      vertex 25 2 3
      vertex 25 2 0
    endloop
  endfacet
  facet normal -1 0 0
    outer loop
      vertex 31 0 0
      vertex 31 1.85786 3
      vertex 31 1.85786 0
    endloop
  endfacet
  facet normal -1 -0 0
    outer loop
      vertex 31 1.85786 3
      vertex 31 0 0
      vertex 31 0 3
    endloop
  endfacet
  facet normal 1 -0 0
    outer loop
      vertex 25 0 3
      vertex 25 2 0
      vertex 25 2 3
    endloop
  endfacet
  facet normal 1 0 0
    outer loop
      vertex 25 2 0
      vertex 25 0 3
      vertex 25 0 0
    endloop
  endfacet
  facet normal -0.707107 -0.707107 0
    outer loop
      vertex 50.1421 24 0
      vertex 46 28.1421 3
      vertex 46 28.1421 0
    endloop
  endfacet
  facet normal -0.707107 -0.707107 0
    outer loop
      vertex 46 28.1421 3
      vertex 50.1421 24 0
      vertex 50.1421 24 3
    endloop
  endfacet
  facet normal 0.707107 -0.707107 0
    outer loop
      vertex 38.9289 21.0711 3
      vertex 46 28.1421 0
      vertex 46 28.1421 3
    endloop
  endfacet
  facet normal 0.707107 -0.707107 0
    outer loop
      vertex 46 28.1421 0
      vertex 38.9289 21.0711 3
      vertex 38.9289 21.0711 0
    endloop
  endfacet
  facet normal 0.707107 0.707107 0
    outer loop
      vertex 46 14 3
      vertex 38.9289 21.0711 0
      vertex 38.9289 21.0711 3
    endloop
  endfacet
  facet normal 0.707107 0.707107 0
    outer loop
      vertex 38.9289 21.0711 0
      vertex 46 14 3
      vertex 46 14 0
    endloop
  endfacet
  facet normal -0.707107 0.707107 0
    outer loop
      vertex 46 14 0
      vertex 50 18 3
      vertex 50 18 0
    endloop
  endfacet
  facet normal -0.707107 0.707107 0
    outer loop
      vertex 50 18 3
      vertex 46 14 0
      vertex 46 14 3
    endloop
  endfacet
  facet normal 0 -1 0
    outer loop
      vertex 50.1421 24 0
      vertex 52 24 3
      vertex 50.1421 24 3
    endloop
  endfacet
  facet normal 0 -1 -0
    outer loop
      vertex 52 24 3
      vertex 50.1421 24 0
      vertex 52 24 0
    endloop
  endfacet
  facet normal 0 1 -0
    outer loop
      vertex 52 18 0
      vertex 50 18 3
      vertex 52 18 3
    endloop
  endfacet
  facet normal 0 1 0
    outer loop
      vertex 50 18 3
      vertex 52 18 0
      vertex 50 18 0
    endloop
  endfacet
  facet normal -0.707107 -0.707107 0
    outer loop
      vertex 50.1421 85 0
      vertex 46 89.1421 3
      vertex 46 89.1421 0
    endloop
  endfacet
  facet normal -0.707107 -0.707107 0
    outer loop
      vertex 46 89.1421 3
      vertex 50.1421 85 0
      vertex 50.1421 85 3
    endloop
  endfacet
  facet normal 0.707107 -0.707107 0
    outer loop
      vertex 38.9289 82.0711 3
      vertex 46 89.1421 0
      vertex 46 89.1421 3
    endloop
  endfacet
  facet normal 0.707107 -0.707107 0
    outer loop
      vertex 46 89.1421 0
      vertex 38.9289 82.0711 3
      vertex 38.9289 82.0711 0
    endloop
  endfacet
  facet normal 0.707107 0.707107 0
    outer loop
      vertex 46 75 3
      vertex 38.9289 82.0711 0
      vertex 38.9289 82.0711 3
    endloop
  endfacet
  facet normal 0.707107 0.707107 0
    outer loop
      vertex 38.9289 82.0711 0
      vertex 46 75 3
      vertex 46 75 0
    endloop
  endfacet
  facet normal -0.707107 0.707107 0
    outer loop
      vertex 46 75 0
      vertex 50 79 3
      vertex 50 79 0
    endloop
  endfacet
  facet normal -0.707107 0.707107 0
    outer loop
      vertex 50 79 3
      vertex 46 75 0
      vertex 46 75 3
    endloop
  endfacet
  facet normal 0 -1 0
    outer loop
      vertex 50.1421 85 0
      vertex 52 85 3
      vertex 50.1421 85 3
    endloop
  endfacet
  facet normal 0 -1 -0
    outer loop
      vertex 52 85 3
      vertex 50.1421 85 0
      vertex 52 85 0
    endloop
  endfacet
  facet normal 0 1 -0
    outer loop
      vertex 52 79 0
      vertex 50 79 3
      vertex 52 79 3
    endloop
  endfacet
  facet normal 0 1 0
    outer loop
      vertex 50 79 3
      vertex 52 79 0
      vertex 50 79 0
    endloop
  endfacet
  facet normal 1 -0 0
    outer loop
      vertex 21 29 3
      vertex 21 74 0
      vertex 21 74 3
    endloop
  endfacet
  facet normal 1 0 0
    outer loop
      vertex 21 74 0
      vertex 21 29 3
      vertex 21 29 0
    endloop
  endfacet
  facet normal -1 0 0
    outer loop
      vertex 38 29 0
      vertex 38 34 3
      vertex 38 34 0
    endloop
  endfacet
  facet normal -1 -0 0
    outer loop
      vertex 38 34 3
      vertex 38 29 0
      vertex 38 29 3
    endloop
  endfacet
  facet normal -1 0 0
    outer loop
      vertex 38 69 0
      vertex 38 74 3
      vertex 38 74 0
    endloop
  endfacet
  facet normal -1 -0 0
    outer loop
      vertex 38 74 3
      vertex 38 69 0
      vertex 38 69 3
    endloop
  endfacet
  facet normal 0 1 -0
    outer loop
      vertex 38 29 0
      vertex 21 29 3
      vertex 38 29 3
    endloop
  endfacet
  facet normal 0 1 0
    outer loop
      vertex 21 29 3
      vertex 38 29 0
      vertex 21 29 0
    endloop
  endfacet
  facet normal 0 -1 0
    outer loop
      vertex 21 74 0
      vertex 38 74 3
      vertex 21 74 3
    endloop
  endfacet
  facet normal 0 -1 -0
    outer loop
      vertex 38 74 3
      vertex 21 74 0
      vertex 38 74 0
    endloop
  endfacet
  facet normal -1 0 0
    outer loop
      vertex 49 34 0
      vertex 49 69 3
      vertex 49 69 0
    endloop
  endfacet
  facet normal -1 -0 0
    outer loop
      vertex 49 69 3
      vertex 49 34 0
      vertex 49 34 3
    endloop
  endfacet
  facet normal 0 -1 0
    outer loop
      vertex 38 69 0
      vertex 49 69 3
      vertex 38 69 3
    endloop
  endfacet
  facet normal 0 -1 -0
    outer loop
      vertex 49 69 3
      vertex 38 69 0
      vertex 49 69 0
    endloop
  endfacet
  facet normal 0 1 -0
    outer loop
      vertex 49 34 0
      vertex 38 34 3
      vertex 49 34 3
    endloop
  endfacet
  facet normal 0 1 0
    outer loop
      vertex 38 34 3
      vertex 49 34 0
      vertex 38 34 0
    endloop
  endfacet
endsolid OpenSCAD_Model
