solid OpenSCAD_Model
  facet normal -1 0 0
    outer loop
      vertex 2 16 2
      vertex 2 21 7
      vertex 2 21 2
    endloop
  endfacet
  facet normal -1 -0 0
    outer loop
      vertex 2 21 7
      vertex 2 16 2
      vertex 2 16 7
    endloop
  endfacet
  facet normal -0 0 1
    outer loop
      vertex 2 21 7
      vertex 7 16 7
      vertex 7 21 7
    endloop
  endfacet
  facet normal 0 0 1
    outer loop
      vertex 7 16 7
      vertex 2 21 7
      vertex 2 16 7
    endloop
  endfacet
  facet normal 1 -0 0
    outer loop
      vertex 7 16 7
      vertex 7 21 2
      vertex 7 21 7
    endloop
  endfacet
  facet normal 1 0 0
    outer loop
      vertex 7 21 2
      vertex 7 16 7
      vertex 7 16 2
    endloop
  endfacet
  facet normal 0 1 -0
    outer loop
      vertex 7 21 2
      vertex 2 21 7
      vertex 7 21 7
    endloop
  endfacet
  facet normal 0 1 0
    outer loop
      vertex 2 21 7
      vertex 7 21 2
      vertex 2 21 2
    endloop
  endfacet
  facet normal 0 0 1
    outer loop
      vertex 8 85 2
      vertex 2 81 2
      vertex 7 81 2
    endloop
  endfacet
  facet normal -0 0 1
    outer loop
      vertex 0 79 2
      vertex 2 76 2
      vertex 2 81 2
    endloop
  endfacet
  facet normal 0 0 1
    outer loop
      vertex 0 73 2
      vertex 2 76 2
      vertex 0 79 2
    endloop
  endfacet
  facet normal 0 0 1
    outer loop
      vertex 2 74 2
      vertex 0 73 2
      vertex 2 23 2
    endloop
  endfacet
  facet normal 0 0 1
    outer loop
      vertex 0 22 2
      vertex 2 23 2
      vertex 0 73 2
    endloop
  endfacet
  facet normal 0 0 1
    outer loop
      vertex 0 79 2
      vertex 2 81 2
      vertex 0 85 2
    endloop
  endfacet
  facet normal -0 0 1
    outer loop
      vertex 0 85 2
      vertex 2 81 2
      vertex 8 85 2
    endloop
  endfacet
  facet normal 0 0 1
    outer loop
      vertex 15.5 23 2
      vertex 8.5 21 2
      vertex 13.5 21 2
    endloop
  endfacet
  facet normal 0 0 1
    outer loop
      vertex 8.5 21 2
      vertex 7 21 2
      vertex 8.5 16 2
    endloop
  endfacet
  facet normal -0 0 1
    outer loop
      vertex 2 23 2
      vertex 8.5 21 2
      vertex 15.5 23 2
    endloop
  endfacet
  facet normal 0 0 1
    outer loop
      vertex 8.5 21 2
      vertex 2 23 2
      vertex 7 21 2
    endloop
  endfacet
  facet normal 0 0 1
    outer loop
      vertex 7 21 2
      vertex 2 23 2
      vertex 2 21 2
    endloop
  endfacet
  facet normal 0 0 1
    outer loop
      vertex 8 85 2
      vertex 14 85 2
      vertex 14 88.8579 2
    endloop
  endfacet
  facet normal 0 0 1
    outer loop
      vertex 11.0711 100.071 2
      vertex 14 88.8579 2
      vertex 18.1421 93 2
    endloop
  endfacet
  facet normal -0 0 1
    outer loop
      vertex 8 89 2
      vertex 14 88.8579 2
      vertex 11.0711 100.071 2
    endloop
  endfacet
  facet normal 0 0 1
    outer loop
      vertex 8 85 2
      vertex 14 88.8579 2
      vertex 8 89 2
    endloop
  endfacet
  facet normal 0 0 1
    outer loop
      vertex 13.5 81 2
      vertex 8 85 2
      vertex 8.5 81 2
    endloop
  endfacet
  facet normal 0 0 1
    outer loop
      vertex 14 85 2
      vertex 8 85 2
      vertex 13.5 81 2
    endloop
  endfacet
  facet normal 0 -0 1
    outer loop
      vertex 8 89 2
      vertex 11.0711 100.071 2
      vertex 4 93 2
    endloop
  endfacet
  facet normal 0 0 1
    outer loop
      vertex 29.5 85 2
      vertex 27.6421 79 2
      vertex 29.5 79 2
    endloop
  endfacet
  facet normal 0 0 1
    outer loop
      vertex 29.5 85 2
      vertex 23.5 83.1421 2
      vertex 27.6421 79 2
    endloop
  endfacet
  facet normal -0 0 1
    outer loop
      vertex 14 85 2
      vertex 23.5 83.1421 2
      vertex 29.5 85 2
    endloop
  endfacet
  facet normal 0 0 1
    outer loop
      vertex 13.5 81 2
      vertex 23.5 83.1421 2
      vertex 14 85 2
    endloop
  endfacet
  facet normal 0 0 1
    outer loop
      vertex 23.5 83.1421 2
      vertex 13.5 81 2
      vertex 16.4289 76.0711 2
    endloop
  endfacet
  facet normal 0 0 1
    outer loop
      vertex 13.5 76 2
      vertex 16.4289 76.0711 2
      vertex 13.5 81 2
    endloop
  endfacet
  facet normal 0 0 1
    outer loop
      vertex 16.4289 76.0711 2
      vertex 13.5 76 2
      vertex 15.5 74 2
    endloop
  endfacet
  facet normal -0 0 1
    outer loop
      vertex 8.5 76 2
      vertex 15.5 74 2
      vertex 13.5 76 2
    endloop
  endfacet
  facet normal 0 0 1
    outer loop
      vertex 7 81 2
      vertex 8.5 81 2
      vertex 8 85 2
    endloop
  endfacet
  facet normal 0 0 1
    outer loop
      vertex 8.5 81 2
      vertex 7 81 2
      vertex 8.5 76 2
    endloop
  endfacet
  facet normal 0 0 1
    outer loop
      vertex 7 76 2
      vertex 8.5 76 2
      vertex 7 81 2
    endloop
  endfacet
  facet normal 0 0 1
    outer loop
      vertex 2 74 2
      vertex 8.5 76 2
      vertex 7 76 2
    endloop
  endfacet
  facet normal 0 0 1
    outer loop
      vertex 2 74 2
      vertex 7 76 2
      vertex 2 76 2
    endloop
  endfacet
  facet normal 0 0 1
    outer loop
      vertex 8.5 76 2
      vertex 2 74 2
      vertex 15.5 74 2
    endloop
  endfacet
  facet normal -0 0 1
    outer loop
      vertex 23.5 69 2
      vertex 27.5 67 2
      vertex 27.5 73 2
    endloop
  endfacet
  facet normal -0 0 1
    outer loop
      vertex 15.5 74 2
      vertex 23.5 69 2
      vertex 16.4289 76.0711 2
    endloop
  endfacet
  facet normal 0 0 1
    outer loop
      vertex 23.5 69 2
      vertex 15.5 67 2
      vertex 27.5 67 2
    endloop
  endfacet
  facet normal 0 0 1
    outer loop
      vertex 15.5 67 2
      vertex 23.5 69 2
      vertex 15.5 74 2
    endloop
  endfacet
  facet normal -0 0 1
    outer loop
      vertex 27.5 28 2
      vertex 29.5 22 2
      vertex 29.5 73 2
    endloop
  endfacet
  facet normal 0 0 1
    outer loop
      vertex 27.5 67 2
      vertex 29.5 73 2
      vertex 27.5 73 2
    endloop
  endfacet
  facet normal 0 0 1
    outer loop
      vertex 27.5 28 2
      vertex 29.5 73 2
      vertex 27.5 67 2
    endloop
  endfacet
  facet normal 0 0 1
    outer loop
      vertex 29.5 22 2
      vertex 27.5 28 2
      vertex 27.6421 22 2
    endloop
  endfacet
  facet normal 0 0 1
    outer loop
      vertex 27.5 28 2
      vertex 23.5 26.1421 2
      vertex 27.6421 22 2
    endloop
  endfacet
  facet normal 0 0 1
    outer loop
      vertex 15.5 23 2
      vertex 23.5 26.1421 2
      vertex 15.5 28 2
    endloop
  endfacet
  facet normal -0 0 1
    outer loop
      vertex 15.5 28 2
      vertex 23.5 26.1421 2
      vertex 27.5 28 2
    endloop
  endfacet
  facet normal -0 0 1
    outer loop
      vertex 13.5 16 2
      vertex 23.5 12 2
      vertex 16.4289 19.0711 2
    endloop
  endfacet
  facet normal 0 0 1
    outer loop
      vertex 23.5 26.1421 2
      vertex 15.5 23 2
      vertex 16.4289 19.0711 2
    endloop
  endfacet
  facet normal -0 0 1
    outer loop
      vertex 13.5 21 2
      vertex 16.4289 19.0711 2
      vertex 15.5 23 2
    endloop
  endfacet
  facet normal 0 0 1
    outer loop
      vertex 16.4289 19.0711 2
      vertex 13.5 21 2
      vertex 13.5 16 2
    endloop
  endfacet
  facet normal 0 0 1
    outer loop
      vertex 23.5 12 2
      vertex 13.5 16 2
      vertex 18.1421 7 2
    endloop
  endfacet
  facet normal 0 0 1
    outer loop
      vertex 13.5 16 2
      vertex 11.0711 14.0711 2
      vertex 18.1421 7 2
    endloop
  endfacet
  facet normal -0 0 1
    outer loop
      vertex 8.5 16 2
      vertex 11.0711 14.0711 2
      vertex 13.5 16 2
    endloop
  endfacet
  facet normal 0 0 1
    outer loop
      vertex 7 16 2
      vertex 8.5 16 2
      vertex 7 21 2
    endloop
  endfacet
  facet normal -0 0 1
    outer loop
      vertex 7 16 2
      vertex 11.0711 14.0711 2
      vertex 8.5 16 2
    endloop
  endfacet
  facet normal 0 0 1
    outer loop
      vertex 7 16 2
      vertex 4 7 2
      vertex 11.0711 14.0711 2
    endloop
  endfacet
  facet normal 0 -0 1
    outer loop
      vertex 4 7 2
      vertex 7 16 2
      vertex 2 16 2
    endloop
  endfacet
  facet normal 0 0 1
    outer loop
      vertex 23.5 12 2
      vertex 29.5 16 2
      vertex 27.5 16 2
    endloop
  endfacet
  facet normal 0 0 1
    outer loop
      vertex 29.5 16 2
      vertex 23.5 12 2
      vertex 29.5 0 2
    endloop
  endfacet
  facet normal -0 0 1
    outer loop
      vertex 18.1421 7 2
      vertex 29.5 0 2
      vertex 23.5 12 2
    endloop
  endfacet
  facet normal 0 0 1
    outer loop
      vertex 14 0 2
      vertex 18.1421 7 2
      vertex 14 2.85786 2
    endloop
  endfacet
  facet normal 0 0 1
    outer loop
      vertex 18.1421 7 2
      vertex 14 0 2
      vertex 29.5 0 2
    endloop
  endfacet
  facet normal 0 0 1
    outer loop
      vertex 0 0 2
      vertex 8 3 2
      vertex 4 7 2
    endloop
  endfacet
  facet normal 0 0 1
    outer loop
      vertex 2 76 2
      vertex 0 73 2
      vertex 2 74 2
    endloop
  endfacet
  facet normal 0 0 1
    outer loop
      vertex 2 23 2
      vertex 0 22 2
      vertex 2 21 2
    endloop
  endfacet
  facet normal 0 0 1
    outer loop
      vertex 0 16 2
      vertex 2 21 2
      vertex 0 22 2
    endloop
  endfacet
  facet normal 0 0 1
    outer loop
      vertex 2 21 2
      vertex 0 16 2
      vertex 2 16 2
    endloop
  endfacet
  facet normal 0 0 1
    outer loop
      vertex 2 16 2
      vertex 0 16 2
      vertex 4 7 2
    endloop
  endfacet
  facet normal 0 0 1
    outer loop
      vertex 8 3 2
      vertex 0 0 2
      vertex 8 0 2
    endloop
  endfacet
  facet normal 0 0 1
    outer loop
      vertex 0 0 2
      vertex 4 7 2
      vertex 0 16 2
    endloop
  endfacet
  facet normal -0 0 1
    outer loop
      vertex -2.85786 22 2
      vertex 0 16 2
      vertex 0 22 2
    endloop
  endfacet
  facet normal 0 0 1
    outer loop
      vertex -2.85786 22 2
      vertex -3 16 2
      vertex 0 16 2
    endloop
  endfacet
  facet normal 0 0 1
    outer loop
      vertex -14.0711 19.0711 2
      vertex -2.85786 22 2
      vertex -7 26.1421 2
    endloop
  endfacet
  facet normal 0 0 1
    outer loop
      vertex -2.85786 22 2
      vertex -14.0711 19.0711 2
      vertex -3 16 2
    endloop
  endfacet
  facet normal 0 0 1
    outer loop
      vertex -3 16 2
      vertex -14.0711 19.0711 2
      vertex -7 12 2
    endloop
  endfacet
  facet normal -0 0 1
    outer loop
      vertex -2.85786 79 2
      vertex 0 73 2
      vertex 0 79 2
    endloop
  endfacet
  facet normal 0 0 1
    outer loop
      vertex -2.85786 79 2
      vertex -3 73 2
      vertex 0 73 2
    endloop
  endfacet
  facet normal 0 0 1
    outer loop
      vertex -14.0711 76.0711 2
      vertex -2.85786 79 2
      vertex -7 83.1421 2
    endloop
  endfacet
  facet normal 0 0 1
    outer loop
      vertex -2.85786 79 2
      vertex -14.0711 76.0711 2
      vertex -3 73 2
    endloop
  endfacet
  facet normal 0 0 1
    outer loop
      vertex -3 73 2
      vertex -14.0711 76.0711 2
      vertex -7 69 2
    endloop
  endfacet
  facet normal 0 -1 0
    outer loop
      vertex 2 16 2
      vertex 7 16 7
      vertex 2 16 7
    endloop
  endfacet
  facet normal 0 -1 -0
    outer loop
      vertex 7 16 7
      vertex 2 16 2
      vertex 7 16 2
    endloop
  endfacet
  facet normal -1 0 0
    outer loop
      vertex 8.5 16 2
      vertex 8.5 21 7
      vertex 8.5 21 2
    endloop
  endfacet
  facet normal -1 -0 0
    outer loop
      vertex 8.5 21 7
      vertex 8.5 16 2
      vertex 8.5 16 7
    endloop
  endfacet
  facet normal -0 0 1
    outer loop
      vertex 8.5 21 7
      vertex 13.5 16 7
      vertex 13.5 21 7
    endloop
  endfacet
  facet normal 0 0 1
    outer loop
      vertex 13.5 16 7
      vertex 8.5 21 7
      vertex 8.5 16 7
    endloop
  endfacet
  facet normal 1 -0 0
    outer loop
      vertex 13.5 16 7
      vertex 13.5 21 2
      vertex 13.5 21 7
    endloop
  endfacet
  facet normal 1 0 0
    outer loop
      vertex 13.5 21 2
      vertex 13.5 16 7
      vertex 13.5 16 2
    endloop
  endfacet
  facet normal 0 1 -0
    outer loop
      vertex 13.5 21 2
      vertex 8.5 21 7
      vertex 13.5 21 7
    endloop
  endfacet
  facet normal 0 1 0
    outer loop
      vertex 8.5 21 7
      vertex 13.5 21 2
      vertex 8.5 21 2
    endloop
  endfacet
  facet normal 0 -1 0
    outer loop
      vertex 8.5 16 2
      vertex 13.5 16 7
      vertex 8.5 16 7
    endloop
  endfacet
  facet normal 0 -1 -0
    outer loop
      vertex 13.5 16 7
      vertex 8.5 16 2
      vertex 13.5 16 2
    endloop
  endfacet
  facet normal -1 0 0
    outer loop
      vertex 2 76 2
      vertex 2 81 7
      vertex 2 81 2
    endloop
  endfacet
  facet normal -1 -0 0
    outer loop
      vertex 2 81 7
      vertex 2 76 2
      vertex 2 76 7
    endloop
  endfacet
  facet normal -0 0 1
    outer loop
      vertex 2 81 7
      vertex 7 76 7
      vertex 7 81 7
    endloop
  endfacet
  facet normal 0 0 1
    outer loop
      vertex 7 76 7
      vertex 2 81 7
      vertex 2 76 7
    endloop
  endfacet
  facet normal 1 -0 0
    outer loop
      vertex 7 76 7
      vertex 7 81 2
      vertex 7 81 7
    endloop
  endfacet
  facet normal 1 0 0
    outer loop
      vertex 7 81 2
      vertex 7 76 7
      vertex 7 76 2
    endloop
  endfacet
  facet normal 0 -1 0
    outer loop
      vertex 2 76 2
      vertex 7 76 7
      vertex 2 76 7
    endloop
  endfacet
  facet normal 0 -1 -0
    outer loop
      vertex 7 76 7
      vertex 2 76 2
      vertex 7 76 2
    endloop
  endfacet
  facet normal 0 1 -0
    outer loop
      vertex 7 81 2
      vertex 2 81 7
      vertex 7 81 7
    endloop
  endfacet
  facet normal 0 1 0
    outer loop
      vertex 2 81 7
      vertex 7 81 2
      vertex 2 81 2
    endloop
  endfacet
  facet normal -1 0 0
    outer loop
      vertex 8.5 76 2
      vertex 8.5 81 7
      vertex 8.5 81 2
    endloop
  endfacet
  facet normal -1 -0 0
    outer loop
      vertex 8.5 81 7
      vertex 8.5 76 2
      vertex 8.5 76 7
    endloop
  endfacet
  facet normal -0 0 1
    outer loop
      vertex 8.5 81 7
      vertex 13.5 76 7
      vertex 13.5 81 7
    endloop
  endfacet
  facet normal 0 0 1
    outer loop
      vertex 13.5 76 7
      vertex 8.5 81 7
      vertex 8.5 76 7
    endloop
  endfacet
  facet normal 1 -0 0
    outer loop
      vertex 13.5 76 7
      vertex 13.5 81 2
      vertex 13.5 81 7
    endloop
  endfacet
  facet normal 1 0 0
    outer loop
      vertex 13.5 81 2
      vertex 13.5 76 7
      vertex 13.5 76 2
    endloop
  endfacet
  facet normal 0 -1 0
    outer loop
      vertex 8.5 76 2
      vertex 13.5 76 7
      vertex 8.5 76 7
    endloop
  endfacet
  facet normal 0 -1 -0
    outer loop
      vertex 13.5 76 7
      vertex 8.5 76 2
      vertex 13.5 76 2
    endloop
  endfacet
  facet normal 0 1 -0
    outer loop
      vertex 13.5 81 2
      vertex 8.5 81 7
      vertex 13.5 81 7
    endloop
  endfacet
  facet normal 0 1 0
    outer loop
      vertex 8.5 81 7
      vertex 13.5 81 2
      vertex 8.5 81 2
    endloop
  endfacet
  facet normal 0.707107 0.707107 0
    outer loop
      vertex -2.85786 22 2
      vertex -7 26.1421 0
      vertex -7 26.1421 2
    endloop
  endfacet
  facet normal 0.707107 0.707107 0
    outer loop
      vertex -7 26.1421 0
      vertex -2.85786 22 2
      vertex -2.85786 22 0
    endloop
  endfacet
  facet normal -0.707107 0.707107 0
    outer loop
      vertex -14.0711 19.0711 0
      vertex -7 26.1421 2
      vertex -7 26.1421 0
    endloop
  endfacet
  facet normal -0.707107 0.707107 0
    outer loop
      vertex -7 26.1421 2
      vertex -14.0711 19.0711 0
      vertex -14.0711 19.0711 2
    endloop
  endfacet
  facet normal -0.707107 -0.707107 0
    outer loop
      vertex -7 12 0
      vertex -14.0711 19.0711 2
      vertex -14.0711 19.0711 0
    endloop
  endfacet
  facet normal -0.707107 -0.707107 0
    outer loop
      vertex -14.0711 19.0711 2
      vertex -7 12 0
      vertex -7 12 2
    endloop
  endfacet
  facet normal 0 0 -1
    outer loop
      vertex 27.6421 79 0
      vertex 29.5 85 0
      vertex 29.5 79 0
    endloop
  endfacet
  facet normal 0 0 -1
    outer loop
      vertex 23.5 83.1421 0
      vertex 29.5 85 0
      vertex 27.6421 79 0
    endloop
  endfacet
  facet normal 0 0 -1
    outer loop
      vertex 23.5 69 0
      vertex 15.5 74 0
      vertex 16.4289 76.0711 0
    endloop
  endfacet
  facet normal 0 0 -1
    outer loop
      vertex 23.5 83.1421 0
      vertex 14 85 0
      vertex 29.5 85 0
    endloop
  endfacet
  facet normal 0 0 -1
    outer loop
      vertex 16.4289 76.0711 0
      vertex 14 85 0
      vertex 23.5 83.1421 0
    endloop
  endfacet
  facet normal 0 0 -1
    outer loop
      vertex 8 85 0
      vertex 16.4289 76.0711 0
      vertex 15.5 74 0
    endloop
  endfacet
  facet normal 0 0 -1
    outer loop
      vertex 8 85 0
      vertex 14 88.8579 0
      vertex 14 85 0
    endloop
  endfacet
  facet normal 0 0 -1
    outer loop
      vertex 16.4289 76.0711 0
      vertex 8 85 0
      vertex 14 85 0
    endloop
  endfacet
  facet normal -0 0 -1
    outer loop
      vertex 14 88.8579 0
      vertex 8 85 0
      vertex 8 89 0
    endloop
  endfacet
  facet normal 0 0 -1
    outer loop
      vertex 2 74 0
      vertex 8 85 0
      vertex 15.5 74 0
    endloop
  endfacet
  facet normal 0 0 -1
    outer loop
      vertex 0 22 0
      vertex 2 23 0
      vertex 0 16 0
    endloop
  endfacet
  facet normal 0 0 -1
    outer loop
      vertex 0 73 0
      vertex 2 23 0
      vertex 0 22 0
    endloop
  endfacet
  facet normal 0 0 -1
    outer loop
      vertex 2 23 0
      vertex 0 73 0
      vertex 2 74 0
    endloop
  endfacet
  facet normal 0 0 -1
    outer loop
      vertex 0 79 0
      vertex 2 74 0
      vertex 0 73 0
    endloop
  endfacet
  facet normal 0 0 -1
    outer loop
      vertex 2 74 0
      vertex 0 79 0
      vertex 8 85 0
    endloop
  endfacet
  facet normal -0 0 -1
    outer loop
      vertex 8 85 0
      vertex 0 79 0
      vertex 0 85 0
    endloop
  endfacet
  facet normal 0 0 -1
    outer loop
      vertex 0 73 0
      vertex -2.85786 79 0
      vertex 0 79 0
    endloop
  endfacet
  facet normal 0 0 -1
    outer loop
      vertex -3 73 0
      vertex -2.85786 79 0
      vertex 0 73 0
    endloop
  endfacet
  facet normal 0 0 -1
    outer loop
      vertex -14.0711 76.0711 0
      vertex -3 73 0
      vertex -7 69 0
    endloop
  endfacet
  facet normal 0 0 -1
    outer loop
      vertex -3 73 0
      vertex -14.0711 76.0711 0
      vertex -2.85786 79 0
    endloop
  endfacet
  facet normal -0 0 -1
    outer loop
      vertex -2.85786 79 0
      vertex -14.0711 76.0711 0
      vertex -7 83.1421 0
    endloop
  endfacet
  facet normal 0 0 -1
    outer loop
      vertex 0 16 0
      vertex -2.85786 22 0
      vertex 0 22 0
    endloop
  endfacet
  facet normal 0 0 -1
    outer loop
      vertex -3 16 0
      vertex -2.85786 22 0
      vertex 0 16 0
    endloop
  endfacet
  facet normal 0 0 -1
    outer loop
      vertex -14.0711 19.0711 0
      vertex -3 16 0
      vertex -7 12 0
    endloop
  endfacet
  facet normal 0 0 -1
    outer loop
      vertex -3 16 0
      vertex -14.0711 19.0711 0
      vertex -2.85786 22 0
    endloop
  endfacet
  facet normal -0 0 -1
    outer loop
      vertex -2.85786 22 0
      vertex -14.0711 19.0711 0
      vertex -7 26.1421 0
    endloop
  endfacet
  facet normal 0 0 -1
    outer loop
      vertex 0 0 0
      vertex 8 3 0
      vertex 8 0 0
    endloop
  endfacet
  facet normal 0 0 -1
    outer loop
      vertex 11.0711 14.0711 0
      vertex 0 16 0
      vertex 2 23 0
    endloop
  endfacet
  facet normal 0 0 -1
    outer loop
      vertex 0 16 0
      vertex 4 7 0
      vertex 0 0 0
    endloop
  endfacet
  facet normal -0 0 -1
    outer loop
      vertex 8 3 0
      vertex 0 0 0
      vertex 4 7 0
    endloop
  endfacet
  facet normal 0 0 -1
    outer loop
      vertex 23.5 12 0
      vertex 29.5 16 0
      vertex 29.5 0 0
    endloop
  endfacet
  facet normal -0 0 -1
    outer loop
      vertex 29.5 16 0
      vertex 23.5 12 0
      vertex 27.5 16 0
    endloop
  endfacet
  facet normal 0 0 -1
    outer loop
      vertex 29.5 0 0
      vertex 18.1421 7 0
      vertex 23.5 12 0
    endloop
  endfacet
  facet normal 0 0 -1
    outer loop
      vertex 14 0 0
      vertex 18.1421 7 0
      vertex 29.5 0 0
    endloop
  endfacet
  facet normal 0 0 -1
    outer loop
      vertex 18.1421 7 0
      vertex 14 0 0
      vertex 14 2.85786 0
    endloop
  endfacet
  facet normal 0 0 -1
    outer loop
      vertex 18.1421 7 0
      vertex 16.4289 19.0711 0
      vertex 23.5 12 0
    endloop
  endfacet
  facet normal 0 0 -1
    outer loop
      vertex 11.0711 14.0711 0
      vertex 16.4289 19.0711 0
      vertex 18.1421 7 0
    endloop
  endfacet
  facet normal -0 0 -1
    outer loop
      vertex 16.4289 19.0711 0
      vertex 11.0711 14.0711 0
      vertex 15.5 23 0
    endloop
  endfacet
  facet normal 0 0 -1
    outer loop
      vertex 0 16 0
      vertex 11.0711 14.0711 0
      vertex 4 7 0
    endloop
  endfacet
  facet normal 0 0 -1
    outer loop
      vertex 11.0711 14.0711 0
      vertex 2 23 0
      vertex 15.5 23 0
    endloop
  endfacet
  facet normal 0 0 -1
    outer loop
      vertex 23.5 26.1421 0
      vertex 27.5 28 0
      vertex 27.6421 22 0
    endloop
  endfacet
  facet normal 0 0 -1
    outer loop
      vertex 15.5 23 0
      vertex 23.5 26.1421 0
      vertex 16.4289 19.0711 0
    endloop
  endfacet
  facet normal 0 0 -1
    outer loop
      vertex 15.5 28 0
      vertex 23.5 26.1421 0
      vertex 15.5 23 0
    endloop
  endfacet
  facet normal 0 0 -1
    outer loop
      vertex 23.5 26.1421 0
      vertex 15.5 28 0
      vertex 27.5 28 0
    endloop
  endfacet
  facet normal 0 0 -1
    outer loop
      vertex 27.5 28 0
      vertex 29.5 22 0
      vertex 27.6421 22 0
    endloop
  endfacet
  facet normal 0 0 -1
    outer loop
      vertex 29.5 22 0
      vertex 27.5 28 0
      vertex 29.5 73 0
    endloop
  endfacet
  facet normal 0 0 -1
    outer loop
      vertex 27.5 67 0
      vertex 29.5 73 0
      vertex 27.5 28 0
    endloop
  endfacet
  facet normal 0 0 -1
    outer loop
      vertex 27.5 67 0
      vertex 27.5 73 0
      vertex 29.5 73 0
    endloop
  endfacet
  facet normal 0 0 -1
    outer loop
      vertex 27.5 67 0
      vertex 23.5 69 0
      vertex 27.5 73 0
    endloop
  endfacet
  facet normal 0 0 -1
    outer loop
      vertex 15.5 74 0
      vertex 23.5 69 0
      vertex 15.5 67 0
    endloop
  endfacet
  facet normal 0 0 -1
    outer loop
      vertex 15.5 67 0
      vertex 23.5 69 0
      vertex 27.5 67 0
    endloop
  endfacet
  facet normal -0 0 -1
    outer loop
      vertex 18.1421 93 0
      vertex 14 88.8579 0
      vertex 11.0711 100.071 0
    endloop
  endfacet
  facet normal 0 0 -1
    outer loop
      vertex 14 88.8579 0
      vertex 8 89 0
      vertex 11.0711 100.071 0
    endloop
  endfacet
  facet normal 0 0 -1
    outer loop
      vertex 11.0711 100.071 0
      vertex 8 89 0
      vertex 4 93 0
    endloop
  endfacet
  facet normal 0.707107 -0.707107 0
    outer loop
      vertex -7 12 2
      vertex -3 16 0
      vertex -3 16 2
    endloop
  endfacet
  facet normal 0.707107 -0.707107 0
    outer loop
      vertex -3 16 0
      vertex -7 12 2
      vertex -7 12 0
    endloop
  endfacet
  facet normal 0 1 -0
    outer loop
      vertex 0 22 0
      vertex -2.85786 22 2
      vertex 0 22 2
    endloop
  endfacet
  facet normal 0 1 0
    outer loop
      vertex -2.85786 22 2
      vertex 0 22 0
      vertex -2.85786 22 0
    endloop
  endfacet
  facet normal 0 -1 0
    outer loop
      vertex -3 16 0
      vertex 0 16 2
      vertex -3 16 2
    endloop
  endfacet
  facet normal 0 -1 -0
    outer loop
      vertex 0 16 2
      vertex -3 16 0
      vertex 0 16 0
    endloop
  endfacet
  facet normal 0.707107 0.707107 0
    outer loop
      vertex -2.85786 79 2
      vertex -7 83.1421 0
      vertex -7 83.1421 2
    endloop
  endfacet
  facet normal 0.707107 0.707107 0
    outer loop
      vertex -7 83.1421 0
      vertex -2.85786 79 2
      vertex -2.85786 79 0
    endloop
  endfacet
  facet normal -0.707107 0.707107 0
    outer loop
      vertex -14.0711 76.0711 0
      vertex -7 83.1421 2
      vertex -7 83.1421 0
    endloop
  endfacet
  facet normal -0.707107 0.707107 0
    outer loop
      vertex -7 83.1421 2
      vertex -14.0711 76.0711 0
      vertex -14.0711 76.0711 2
    endloop
  endfacet
  facet normal -0.707107 -0.707107 0
    outer loop
      vertex -7 69 0
      vertex -14.0711 76.0711 2
      vertex -14.0711 76.0711 0
    endloop
  endfacet
  facet normal -0.707107 -0.707107 0
    outer loop
      vertex -14.0711 76.0711 2
      vertex -7 69 0
      vertex -7 69 2
    endloop
  endfacet
  facet normal 0.707107 -0.707107 0
    outer loop
      vertex -7 69 2
      vertex -3 73 0
      vertex -3 73 2
    endloop
  endfacet
  facet normal 0.707107 -0.707107 0
    outer loop
      vertex -3 73 0
      vertex -7 69 2
      vertex -7 69 0
    endloop
  endfacet
  facet normal 0 1 -0
    outer loop
      vertex 0 79 0
      vertex -2.85786 79 2
      vertex 0 79 2
    endloop
  endfacet
  facet normal 0 1 0
    outer loop
      vertex -2.85786 79 2
      vertex 0 79 0
      vertex -2.85786 79 0
    endloop
  endfacet
  facet normal 0 -1 0
    outer loop
      vertex -3 73 0
      vertex 0 73 2
      vertex -3 73 2
    endloop
  endfacet
  facet normal 0 -1 -0
    outer loop
      vertex 0 73 2
      vertex -3 73 0
      vertex 0 73 0
    endloop
  endfacet
  facet normal 0.707107 -0.707107 0
    outer loop
      vertex 14 88.8579 2
      vertex 18.1421 93 0
      vertex 18.1421 93 2
    endloop
  endfacet
  facet normal 0.707107 -0.707107 0
    outer loop
      vertex 18.1421 93 0
      vertex 14 88.8579 2
      vertex 14 88.8579 0
    endloop
  endfacet
  facet normal 0.707107 0.707107 0
    outer loop
      vertex 18.1421 93 2
      vertex 11.0711 100.071 0
      vertex 11.0711 100.071 2
    endloop
  endfacet
  facet normal 0.707107 0.707107 0
    outer loop
      vertex 11.0711 100.071 0
      vertex 18.1421 93 2
      vertex 18.1421 93 0
    endloop
  endfacet
  facet normal -0.707107 0.707107 0
    outer loop
      vertex 4 93 0
      vertex 11.0711 100.071 2
      vertex 11.0711 100.071 0
    endloop
  endfacet
  facet normal -0.707107 0.707107 0
    outer loop
      vertex 11.0711 100.071 2
      vertex 4 93 0
      vertex 4 93 2
    endloop
  endfacet
  facet normal -0.707107 -0.707107 0
    outer loop
      vertex 8 89 0
      vertex 4 93 2
      vertex 4 93 0
    endloop
  endfacet
  facet normal -0.707107 -0.707107 0
    outer loop
      vertex 4 93 2
      vertex 8 89 0
      vertex 8 89 2
    endloop
  endfacet
  facet normal 1 -0 0
    outer loop
      vertex 14 85 2
      vertex 14 88.8579 0
      vertex 14 88.8579 2
    endloop
  endfacet
  facet normal 1 0 0
    outer loop
      vertex 14 88.8579 0
      vertex 14 85 2
      vertex 14 85 0
    endloop
  endfacet
  facet normal -1 0 0
    outer loop
      vertex 8 85 0
      vertex 8 89 2
      vertex 8 89 0
    endloop
  endfacet
  facet normal -1 -0 0
    outer loop
      vertex 8 89 2
      vertex 8 85 0
      vertex 8 85 2
    endloop
  endfacet
  facet normal -1 0 0
    outer loop
      vertex 0 0 0
      vertex 0 16 2
      vertex 0 16 0
    endloop
  endfacet
  facet normal -1 -0 0
    outer loop
      vertex 0 16 2
      vertex 0 0 0
      vertex 0 0 2
    endloop
  endfacet
  facet normal -1 0 0
    outer loop
      vertex 0 79 0
      vertex 0 85 2
      vertex 0 85 0
    endloop
  endfacet
  facet normal -1 -0 0
    outer loop
      vertex 0 85 2
      vertex 0 79 0
      vertex 0 79 2
    endloop
  endfacet
  facet normal -1 0 0
    outer loop
      vertex 0 22 0
      vertex 0 73 2
      vertex 0 73 0
    endloop
  endfacet
  facet normal -1 -0 0
    outer loop
      vertex 0 73 2
      vertex 0 22 0
      vertex 0 22 2
    endloop
  endfacet
  facet normal 1 -0 0
    outer loop
      vertex 29.5 0 2
      vertex 29.5 16 0
      vertex 29.5 16 2
    endloop
  endfacet
  facet normal 1 0 0
    outer loop
      vertex 29.5 16 0
      vertex 29.5 0 2
      vertex 29.5 0 0
    endloop
  endfacet
  facet normal 1 -0 0
    outer loop
      vertex 29.5 79 2
      vertex 29.5 85 0
      vertex 29.5 85 2
    endloop
  endfacet
  facet normal 1 0 0
    outer loop
      vertex 29.5 85 0
      vertex 29.5 79 2
      vertex 29.5 79 0
    endloop
  endfacet
  facet normal 1 -0 0
    outer loop
      vertex 29.5 22 2
      vertex 29.5 73 0
      vertex 29.5 73 2
    endloop
  endfacet
  facet normal 1 0 0
    outer loop
      vertex 29.5 73 0
      vertex 29.5 22 2
      vertex 29.5 22 0
    endloop
  endfacet
  facet normal 0 -1 0
    outer loop
      vertex 0 0 0
      vertex 8 0 2
      vertex 0 0 2
    endloop
  endfacet
  facet normal 0 -1 -0
    outer loop
      vertex 8 0 2
      vertex 0 0 0
      vertex 8 0 0
    endloop
  endfacet
  facet normal 0 -1 0
    outer loop
      vertex 14 0 0
      vertex 29.5 0 2
      vertex 14 0 2
    endloop
  endfacet
  facet normal 0 -1 -0
    outer loop
      vertex 29.5 0 2
      vertex 14 0 0
      vertex 29.5 0 0
    endloop
  endfacet
  facet normal 0 1 -0
    outer loop
      vertex 29.5 85 0
      vertex 14 85 2
      vertex 29.5 85 2
    endloop
  endfacet
  facet normal 0 1 0
    outer loop
      vertex 14 85 2
      vertex 29.5 85 0
      vertex 14 85 0
    endloop
  endfacet
  facet normal 0 1 -0
    outer loop
      vertex 8 85 0
      vertex 0 85 2
      vertex 8 85 2
    endloop
  endfacet
  facet normal 0 1 0
    outer loop
      vertex 0 85 2
      vertex 8 85 0
      vertex 0 85 0
    endloop
  endfacet
  facet normal -0.707107 0.707107 0
    outer loop
      vertex 14 2.85786 0
      vertex 18.1421 7 2
      vertex 18.1421 7 0
    endloop
  endfacet
  facet normal -0.707107 0.707107 0
    outer loop
      vertex 18.1421 7 2
      vertex 14 2.85786 0
      vertex 14 2.85786 2
    endloop
  endfacet
  facet normal -0.707107 -0.707107 0
    outer loop
      vertex 18.1421 7 0
      vertex 11.0711 14.0711 2
      vertex 11.0711 14.0711 0
    endloop
  endfacet
  facet normal -0.707107 -0.707107 0
    outer loop
      vertex 11.0711 14.0711 2
      vertex 18.1421 7 0
      vertex 18.1421 7 2
    endloop
  endfacet
  facet normal 0.707107 -0.707107 0
    outer loop
      vertex 4 7 2
      vertex 11.0711 14.0711 0
      vertex 11.0711 14.0711 2
    endloop
  endfacet
  facet normal 0.707107 -0.707107 0
    outer loop
      vertex 11.0711 14.0711 0
      vertex 4 7 2
      vertex 4 7 0
    endloop
  endfacet
  facet normal 0.707107 0.707107 0
    outer loop
      vertex 8 3 2
      vertex 4 7 0
      vertex 4 7 2
    endloop
  endfacet
  facet normal 0.707107 0.707107 0
    outer loop
      vertex 4 7 0
      vertex 8 3 2
      vertex 8 3 0
    endloop
  endfacet
  facet normal -1 0 0
    outer loop
      vertex 14 0 0
      vertex 14 2.85786 2
      vertex 14 2.85786 0
    endloop
  endfacet
  facet normal -1 -0 0
    outer loop
      vertex 14 2.85786 2
      vertex 14 0 0
      vertex 14 0 2
    endloop
  endfacet
  facet normal 1 -0 0
    outer loop
      vertex 8 0 2
      vertex 8 3 0
      vertex 8 3 2
    endloop
  endfacet
  facet normal 1 0 0
    outer loop
      vertex 8 3 0
      vertex 8 0 2
      vertex 8 0 0
    endloop
  endfacet
  facet normal -0.707107 -0.707107 0
    outer loop
      vertex 27.6421 22 0
      vertex 23.5 26.1421 2
      vertex 23.5 26.1421 0
    endloop
  endfacet
  facet normal -0.707107 -0.707107 0
    outer loop
      vertex 23.5 26.1421 2
      vertex 27.6421 22 0
      vertex 27.6421 22 2
    endloop
  endfacet
  facet normal 0.707107 -0.707107 0
    outer loop
      vertex 16.4289 19.0711 2
      vertex 23.5 26.1421 0
      vertex 23.5 26.1421 2
    endloop
  endfacet
  facet normal 0.707107 -0.707107 0
    outer loop
      vertex 23.5 26.1421 0
      vertex 16.4289 19.0711 2
      vertex 16.4289 19.0711 0
    endloop
  endfacet
  facet normal 0.707107 0.707107 0
    outer loop
      vertex 23.5 12 2
      vertex 16.4289 19.0711 0
      vertex 16.4289 19.0711 2
    endloop
  endfacet
  facet normal 0.707107 0.707107 0
    outer loop
      vertex 16.4289 19.0711 0
      vertex 23.5 12 2
      vertex 23.5 12 0
    endloop
  endfacet
  facet normal -0.707107 0.707107 0
    outer loop
      vertex 23.5 12 0
      vertex 27.5 16 2
      vertex 27.5 16 0
    endloop
  endfacet
  facet normal -0.707107 0.707107 0
    outer loop
      vertex 27.5 16 2
      vertex 23.5 12 0
      vertex 23.5 12 2
    endloop
  endfacet
  facet normal 0 -1 0
    outer loop
      vertex 27.6421 22 0
      vertex 29.5 22 2
      vertex 27.6421 22 2
    endloop
  endfacet
  facet normal 0 -1 -0
    outer loop
      vertex 29.5 22 2
      vertex 27.6421 22 0
      vertex 29.5 22 0
    endloop
  endfacet
  facet normal 0 1 -0
    outer loop
      vertex 29.5 16 0
      vertex 27.5 16 2
      vertex 29.5 16 2
    endloop
  endfacet
  facet normal 0 1 0
    outer loop
      vertex 27.5 16 2
      vertex 29.5 16 0
      vertex 27.5 16 0
    endloop
  endfacet
  facet normal -0.707107 -0.707107 0
    outer loop
      vertex 27.6421 79 0
      vertex 23.5 83.1421 2
      vertex 23.5 83.1421 0
    endloop
  endfacet
  facet normal -0.707107 -0.707107 0
    outer loop
      vertex 23.5 83.1421 2
      vertex 27.6421 79 0
      vertex 27.6421 79 2
    endloop
  endfacet
  facet normal 0.707107 -0.707107 0
    outer loop
      vertex 16.4289 76.0711 2
      vertex 23.5 83.1421 0
      vertex 23.5 83.1421 2
    endloop
  endfacet
  facet normal 0.707107 -0.707107 0
    outer loop
      vertex 23.5 83.1421 0
      vertex 16.4289 76.0711 2
      vertex 16.4289 76.0711 0
    endloop
  endfacet
  facet normal 0.707107 0.707107 0
    outer loop
      vertex 23.5 69 2
      vertex 16.4289 76.0711 0
      vertex 16.4289 76.0711 2
    endloop
  endfacet
  facet normal 0.707107 0.707107 0
    outer loop
      vertex 16.4289 76.0711 0
      vertex 23.5 69 2
      vertex 23.5 69 0
    endloop
  endfacet
  facet normal -0.707107 0.707107 0
    outer loop
      vertex 23.5 69 0
      vertex 27.5 73 2
      vertex 27.5 73 0
    endloop
  endfacet
  facet normal -0.707107 0.707107 0
    outer loop
      vertex 27.5 73 2
      vertex 23.5 69 0
      vertex 23.5 69 2
    endloop
  endfacet
  facet normal 0 -1 0
    outer loop
      vertex 27.6421 79 0
      vertex 29.5 79 2
      vertex 27.6421 79 2
    endloop
  endfacet
  facet normal 0 -1 -0
    outer loop
      vertex 29.5 79 2
      vertex 27.6421 79 0
      vertex 29.5 79 0
    endloop
  endfacet
  facet normal 0 1 -0
    outer loop
      vertex 29.5 73 0
      vertex 27.5 73 2
      vertex 29.5 73 2
    endloop
  endfacet
  facet normal 0 1 0
    outer loop
      vertex 27.5 73 2
      vertex 29.5 73 0
      vertex 27.5 73 0
    endloop
  endfacet
  facet normal 1 -0 0
    outer loop
      vertex 2 23 2
      vertex 2 74 0
      vertex 2 74 2
    endloop
  endfacet
  facet normal 1 0 0
    outer loop
      vertex 2 74 0
      vertex 2 23 2
      vertex 2 23 0
    endloop
  endfacet
  facet normal -1 0 0
    outer loop
      vertex 15.5 23 0
      vertex 15.5 28 2
      vertex 15.5 28 0
    endloop
  endfacet
  facet normal -1 -0 0
    outer loop
      vertex 15.5 28 2
      vertex 15.5 23 0
      vertex 15.5 23 2
    endloop
  endfacet
  facet normal -1 0 0
    outer loop
      vertex 15.5 67 0
      vertex 15.5 74 2
      vertex 15.5 74 0
    endloop
  endfacet
  facet normal -1 -0 0
    outer loop
      vertex 15.5 74 2
      vertex 15.5 67 0
      vertex 15.5 67 2
    endloop
  endfacet
  facet normal 0 1 -0
    outer loop
      vertex 15.5 23 0
      vertex 2 23 2
      vertex 15.5 23 2
    endloop
  endfacet
  facet normal 0 1 0
    outer loop
      vertex 2 23 2
      vertex 15.5 23 0
      vertex 2 23 0
    endloop
  endfacet
  facet normal 0 -1 0
    outer loop
      vertex 2 74 0
      vertex 15.5 74 2
      vertex 2 74 2
    endloop
  endfacet
  facet normal 0 -1 -0
    outer loop
      vertex 15.5 74 2
      vertex 2 74 0
      vertex 15.5 74 0
    endloop
  endfacet
  facet normal -1 0 0
    outer loop
      vertex 27.5 28 0
      vertex 27.5 67 2
      vertex 27.5 67 0
    endloop
  endfacet
  facet normal -1 -0 0
    outer loop
      vertex 27.5 67 2
      vertex 27.5 28 0
      vertex 27.5 28 2
    endloop
  endfacet
  facet normal 0 1 -0
    outer loop
      vertex 27.5 28 0
      vertex 15.5 28 2
      vertex 27.5 28 2
    endloop
  endfacet
  facet normal 0 1 0
    outer loop
      vertex 15.5 28 2
      vertex 27.5 28 0
      vertex 15.5 28 0
    endloop
  endfacet
  facet normal 0 -1 0
    outer loop
      vertex 15.5 67 0
      vertex 27.5 67 2
      vertex 15.5 67 2
    endloop
  endfacet
  facet normal 0 -1 -0
    outer loop
      vertex 27.5 67 2
      vertex 15.5 67 0
      vertex 27.5 67 0
    endloop
  endfacet
endsolid OpenSCAD_Model
