solid OpenSCAD_Model
  facet normal -1 0 0
    outer loop
      vertex 3 16 3
      vertex 3 21 8
      vertex 3 21 3
    endloop
  endfacet
  facet normal -1 -0 0
    outer loop
      vertex 3 21 8
      vertex 3 16 3
      vertex 3 16 8
    endloop
  endfacet
  facet normal -0 0 1
    outer loop
      vertex 3 21 8
      vertex 8 16 8
      vertex 8 21 8
    endloop
  endfacet
  facet normal 0 0 1
    outer loop
      vertex 8 16 8
      vertex 3 21 8
      vertex 3 16 8
    endloop
  endfacet
  facet normal 1 -0 0
    outer loop
      vertex 8 16 8
      vertex 8 21 3
      vertex 8 21 8
    endloop
  endfacet
  facet normal 1 0 0
    outer loop
      vertex 8 21 3
      vertex 8 16 8
      vertex 8 16 3
    endloop
  endfacet
  facet normal 0 1 -0
    outer loop
      vertex 8 21 3
      vertex 3 21 8
      vertex 8 21 8
    endloop
  endfacet
  facet normal 0 1 0
    outer loop
      vertex 3 21 8
      vertex 8 21 3
      vertex 3 21 3
    endloop
  endfacet
  facet normal 0 0 1
    outer loop
      vertex 8 87 3
      vertex 3 81 3
      vertex 8 81 3
    endloop
  endfacet
  facet normal -0 0 1
    outer loop
      vertex 0 81 3
      vertex 3 76 3
      vertex 3 81 3
    endloop
  endfacet
  facet normal 0 0 1
    outer loop
      vertex 3 76 3
      vertex 0 75 3
      vertex 3 73 3
    endloop
  endfacet
  facet normal 0 0 1
    outer loop
      vertex 3 73 3
      vertex 0 75 3
      vertex 3 24 3
    endloop
  endfacet
  facet normal 0 0 1
    outer loop
      vertex 0 20 3
      vertex 3 24 3
      vertex 0 75 3
    endloop
  endfacet
  facet normal 0 0 1
    outer loop
      vertex 0 81 3
      vertex 3 81 3
      vertex 0 87 3
    endloop
  endfacet
  facet normal -0 0 1
    outer loop
      vertex 0 87 3
      vertex 3 81 3
      vertex 8 87 3
    endloop
  endfacet
  facet normal -0 0 1
    outer loop
      vertex 8 91 3
      vertex 14 90.8579 3
      vertex 11.0711 102.071 3
    endloop
  endfacet
  facet normal 0 0 1
    outer loop
      vertex 11.0711 102.071 3
      vertex 14 90.8579 3
      vertex 18.1421 95 3
    endloop
  endfacet
  facet normal 0 0 1
    outer loop
      vertex 17.5 24 3
      vertex 9.5 21 3
      vertex 14.5 21 3
    endloop
  endfacet
  facet normal 0 0 1
    outer loop
      vertex 9.5 21 3
      vertex 8 21 3
      vertex 9.5 16 3
    endloop
  endfacet
  facet normal -0 0 1
    outer loop
      vertex 3 24 3
      vertex 9.5 21 3
      vertex 17.5 24 3
    endloop
  endfacet
  facet normal 0 0 1
    outer loop
      vertex 9.5 21 3
      vertex 3 24 3
      vertex 8 21 3
    endloop
  endfacet
  facet normal 0 0 1
    outer loop
      vertex 8 21 3
      vertex 3 24 3
      vertex 3 21 3
    endloop
  endfacet
  facet normal 0 0 1
    outer loop
      vertex 25.5 10 3
      vertex 30.5 14 3
      vertex 29.5 14 3
    endloop
  endfacet
  facet normal 0 0 1
    outer loop
      vertex 30.5 14 3
      vertex 25.5 10 3
      vertex 30.5 0 3
    endloop
  endfacet
  facet normal 0 0 1
    outer loop
      vertex 18.1421 7 3
      vertex 25.5 10 3
      vertex 18.4289 17.0711 3
    endloop
  endfacet
  facet normal 0 0 1
    outer loop
      vertex 25.5 10 3
      vertex 18.1421 7 3
      vertex 30.5 0 3
    endloop
  endfacet
  facet normal 0 0 1
    outer loop
      vertex 14 0 3
      vertex 18.1421 7 3
      vertex 14 2.85786 3
    endloop
  endfacet
  facet normal 0 0 1
    outer loop
      vertex 18.1421 7 3
      vertex 14 0 3
      vertex 30.5 0 3
    endloop
  endfacet
  facet normal 0 0 1
    outer loop
      vertex 30.5 87 3
      vertex 29.6421 81 3
      vertex 30.5 81 3
    endloop
  endfacet
  facet normal 0 0 1
    outer loop
      vertex 30.5 87 3
      vertex 25.5 85.1421 3
      vertex 29.6421 81 3
    endloop
  endfacet
  facet normal 0 0 1
    outer loop
      vertex 14.5 76 3
      vertex 18.4289 78.0711 3
      vertex 14.5 81 3
    endloop
  endfacet
  facet normal 0 0 1
    outer loop
      vertex 25.5 85.1421 3
      vertex 14.5 81 3
      vertex 18.4289 78.0711 3
    endloop
  endfacet
  facet normal -0 0 1
    outer loop
      vertex 14 87 3
      vertex 25.5 85.1421 3
      vertex 30.5 87 3
    endloop
  endfacet
  facet normal 0 0 1
    outer loop
      vertex 14 87 3
      vertex 14.5 81 3
      vertex 25.5 85.1421 3
    endloop
  endfacet
  facet normal 0 0 1
    outer loop
      vertex 8 87 3
      vertex 14 90.8579 3
      vertex 8 91 3
    endloop
  endfacet
  facet normal 0 0 1
    outer loop
      vertex 14 90.8579 3
      vertex 8 87 3
      vertex 14 87 3
    endloop
  endfacet
  facet normal 0 0 1
    outer loop
      vertex 14 87 3
      vertex 9.5 81 3
      vertex 14.5 81 3
    endloop
  endfacet
  facet normal 0 -0 1
    outer loop
      vertex 9.5 81 3
      vertex 14 87 3
      vertex 8 87 3
    endloop
  endfacet
  facet normal 0 -0 1
    outer loop
      vertex 8 91 3
      vertex 11.0711 102.071 3
      vertex 4 95 3
    endloop
  endfacet
  facet normal -0 0 1
    outer loop
      vertex 25.5 71 3
      vertex 27.5 68 3
      vertex 29.5 75 3
    endloop
  endfacet
  facet normal -0 0 1
    outer loop
      vertex 17.5 73 3
      vertex 25.5 71 3
      vertex 18.4289 78.0711 3
    endloop
  endfacet
  facet normal 0 0 1
    outer loop
      vertex 17.5 68 3
      vertex 25.5 71 3
      vertex 17.5 73 3
    endloop
  endfacet
  facet normal 0 0 1
    outer loop
      vertex 25.5 71 3
      vertex 17.5 68 3
      vertex 27.5 68 3
    endloop
  endfacet
  facet normal -0 0 1
    outer loop
      vertex 27.5 68 3
      vertex 30.5 20 3
      vertex 30.5 75 3
    endloop
  endfacet
  facet normal 0 0 1
    outer loop
      vertex 27.5 68 3
      vertex 30.5 75 3
      vertex 29.5 75 3
    endloop
  endfacet
  facet normal 0 0 1
    outer loop
      vertex 30.5 20 3
      vertex 27.5 68 3
      vertex 27.5 26 3
    endloop
  endfacet
  facet normal 0 0 1
    outer loop
      vertex 30.5 20 3
      vertex 27.5 26 3
      vertex 29.6421 20 3
    endloop
  endfacet
  facet normal 0 0 1
    outer loop
      vertex 27.5 26 3
      vertex 25.5 24.1421 3
      vertex 29.6421 20 3
    endloop
  endfacet
  facet normal -0 0 1
    outer loop
      vertex 17.5 26 3
      vertex 25.5 24.1421 3
      vertex 27.5 26 3
    endloop
  endfacet
  facet normal 0 0 1
    outer loop
      vertex 17.5 24 3
      vertex 25.5 24.1421 3
      vertex 17.5 26 3
    endloop
  endfacet
  facet normal 0 0 1
    outer loop
      vertex 25.5 24.1421 3
      vertex 17.5 24 3
      vertex 18.4289 17.0711 3
    endloop
  endfacet
  facet normal -0 0 1
    outer loop
      vertex 14.5 21 3
      vertex 18.4289 17.0711 3
      vertex 17.5 24 3
    endloop
  endfacet
  facet normal 0 0 1
    outer loop
      vertex 18.4289 17.0711 3
      vertex 14.5 21 3
      vertex 14.5 16 3
    endloop
  endfacet
  facet normal 0 0 1
    outer loop
      vertex 18.4289 17.0711 3
      vertex 14.5 16 3
      vertex 18.1421 7 3
    endloop
  endfacet
  facet normal 0 0 1
    outer loop
      vertex 14.5 16 3
      vertex 11.0711 14.0711 3
      vertex 18.1421 7 3
    endloop
  endfacet
  facet normal -0 0 1
    outer loop
      vertex 9.5 16 3
      vertex 11.0711 14.0711 3
      vertex 14.5 16 3
    endloop
  endfacet
  facet normal 0 0 1
    outer loop
      vertex 8 16 3
      vertex 9.5 16 3
      vertex 8 21 3
    endloop
  endfacet
  facet normal -0 0 1
    outer loop
      vertex 8 16 3
      vertex 11.0711 14.0711 3
      vertex 9.5 16 3
    endloop
  endfacet
  facet normal 0 0 1
    outer loop
      vertex 8 16 3
      vertex 4 7 3
      vertex 11.0711 14.0711 3
    endloop
  endfacet
  facet normal 0 -0 1
    outer loop
      vertex 4 7 3
      vertex 8 16 3
      vertex 3 16 3
    endloop
  endfacet
  facet normal 0 0 1
    outer loop
      vertex 18.4289 78.0711 3
      vertex 14.5 76 3
      vertex 17.5 73 3
    endloop
  endfacet
  facet normal -0 0 1
    outer loop
      vertex 9.5 76 3
      vertex 17.5 73 3
      vertex 14.5 76 3
    endloop
  endfacet
  facet normal 0 0 1
    outer loop
      vertex 8 81 3
      vertex 9.5 81 3
      vertex 8 87 3
    endloop
  endfacet
  facet normal 0 0 1
    outer loop
      vertex 9.5 81 3
      vertex 8 81 3
      vertex 9.5 76 3
    endloop
  endfacet
  facet normal 0 0 1
    outer loop
      vertex 8 76 3
      vertex 9.5 76 3
      vertex 8 81 3
    endloop
  endfacet
  facet normal 0 0 1
    outer loop
      vertex 3 73 3
      vertex 9.5 76 3
      vertex 8 76 3
    endloop
  endfacet
  facet normal 0 0 1
    outer loop
      vertex 3 73 3
      vertex 8 76 3
      vertex 3 76 3
    endloop
  endfacet
  facet normal 0 0 1
    outer loop
      vertex 9.5 76 3
      vertex 3 73 3
      vertex 17.5 73 3
    endloop
  endfacet
  facet normal 0 0 1
    outer loop
      vertex 0 0 3
      vertex 8 3 3
      vertex 4 7 3
    endloop
  endfacet
  facet normal 0 0 1
    outer loop
      vertex 3 76 3
      vertex 0 81 3
      vertex 0 75 3
    endloop
  endfacet
  facet normal 0 0 1
    outer loop
      vertex 3 24 3
      vertex 0 20 3
      vertex 3 21 3
    endloop
  endfacet
  facet normal 0 0 1
    outer loop
      vertex 3 21 3
      vertex 0 20 3
      vertex 3 16 3
    endloop
  endfacet
  facet normal 0 0 1
    outer loop
      vertex 0 14 3
      vertex 3 16 3
      vertex 0 20 3
    endloop
  endfacet
  facet normal 0 0 1
    outer loop
      vertex 3 16 3
      vertex 0 14 3
      vertex 4 7 3
    endloop
  endfacet
  facet normal 0 0 1
    outer loop
      vertex 0 0 3
      vertex 4 7 3
      vertex 0 14 3
    endloop
  endfacet
  facet normal 0 0 1
    outer loop
      vertex 8 3 3
      vertex 0 0 3
      vertex 8 0 3
    endloop
  endfacet
  facet normal -0 0 1
    outer loop
      vertex -1.85786 20 3
      vertex 0 14 3
      vertex 0 20 3
    endloop
  endfacet
  facet normal 0 0 1
    outer loop
      vertex -1.85786 20 3
      vertex -2 14 3
      vertex 0 14 3
    endloop
  endfacet
  facet normal 0 0 1
    outer loop
      vertex -13.0711 17.0711 3
      vertex -1.85786 20 3
      vertex -6 24.1421 3
    endloop
  endfacet
  facet normal 0 0 1
    outer loop
      vertex -1.85786 20 3
      vertex -13.0711 17.0711 3
      vertex -2 14 3
    endloop
  endfacet
  facet normal 0 0 1
    outer loop
      vertex -2 14 3
      vertex -13.0711 17.0711 3
      vertex -6 10 3
    endloop
  endfacet
  facet normal -0 0 1
    outer loop
      vertex -1.85786 81 3
      vertex 0 75 3
      vertex 0 81 3
    endloop
  endfacet
  facet normal 0 0 1
    outer loop
      vertex -1.85786 81 3
      vertex -2 75 3
      vertex 0 75 3
    endloop
  endfacet
  facet normal 0 0 1
    outer loop
      vertex -13.0711 78.0711 3
      vertex -1.85786 81 3
      vertex -6 85.1421 3
    endloop
  endfacet
  facet normal 0 0 1
    outer loop
      vertex -1.85786 81 3
      vertex -13.0711 78.0711 3
      vertex -2 75 3
    endloop
  endfacet
  facet normal 0 0 1
    outer loop
      vertex -2 75 3
      vertex -13.0711 78.0711 3
      vertex -6 71 3
    endloop
  endfacet
  facet normal 0 -1 0
    outer loop
      vertex 3 16 3
      vertex 8 16 8
      vertex 3 16 8
    endloop
  endfacet
  facet normal 0 -1 -0
    outer loop
      vertex 8 16 8
      vertex 3 16 3
      vertex 8 16 3
    endloop
  endfacet
  facet normal -1 0 0
    outer loop
      vertex 9.5 16 3
      vertex 9.5 21 8
      vertex 9.5 21 3
    endloop
  endfacet
  facet normal -1 -0 0
    outer loop
      vertex 9.5 21 8
      vertex 9.5 16 3
      vertex 9.5 16 8
    endloop
  endfacet
  facet normal -0 0 1
    outer loop
      vertex 9.5 21 8
      vertex 14.5 16 8
      vertex 14.5 21 8
    endloop
  endfacet
  facet normal 0 0 1
    outer loop
      vertex 14.5 16 8
      vertex 9.5 21 8
      vertex 9.5 16 8
    endloop
  endfacet
  facet normal 1 -0 0
    outer loop
      vertex 14.5 16 8
      vertex 14.5 21 3
      vertex 14.5 21 8
    endloop
  endfacet
  facet normal 1 0 0
    outer loop
      vertex 14.5 21 3
      vertex 14.5 16 8
      vertex 14.5 16 3
    endloop
  endfacet
  facet normal 0 -1 0
    outer loop
      vertex 9.5 16 3
      vertex 14.5 16 8
      vertex 9.5 16 8
    endloop
  endfacet
  facet normal 0 -1 -0
    outer loop
      vertex 14.5 16 8
      vertex 9.5 16 3
      vertex 14.5 16 3
    endloop
  endfacet
  facet normal 0 1 -0
    outer loop
      vertex 14.5 21 3
      vertex 9.5 21 8
      vertex 14.5 21 8
    endloop
  endfacet
  facet normal 0 1 0
    outer loop
      vertex 9.5 21 8
      vertex 14.5 21 3
      vertex 9.5 21 3
    endloop
  endfacet
  facet normal -1 0 0
    outer loop
      vertex 3 76 3
      vertex 3 81 8
      vertex 3 81 3
    endloop
  endfacet
  facet normal -1 -0 0
    outer loop
      vertex 3 81 8
      vertex 3 76 3
      vertex 3 76 8
    endloop
  endfacet
  facet normal -0 0 1
    outer loop
      vertex 3 81 8
      vertex 8 76 8
      vertex 8 81 8
    endloop
  endfacet
  facet normal 0 0 1
    outer loop
      vertex 8 76 8
      vertex 3 81 8
      vertex 3 76 8
    endloop
  endfacet
  facet normal 1 -0 0
    outer loop
      vertex 8 76 8
      vertex 8 81 3
      vertex 8 81 8
    endloop
  endfacet
  facet normal 1 0 0
    outer loop
      vertex 8 81 3
      vertex 8 76 8
      vertex 8 76 3
    endloop
  endfacet
  facet normal 0 -1 0
    outer loop
      vertex 3 76 3
      vertex 8 76 8
      vertex 3 76 8
    endloop
  endfacet
  facet normal 0 -1 -0
    outer loop
      vertex 8 76 8
      vertex 3 76 3
      vertex 8 76 3
    endloop
  endfacet
  facet normal 0 1 -0
    outer loop
      vertex 8 81 3
      vertex 3 81 8
      vertex 8 81 8
    endloop
  endfacet
  facet normal 0 1 0
    outer loop
      vertex 3 81 8
      vertex 8 81 3
      vertex 3 81 3
    endloop
  endfacet
  facet normal -1 0 0
    outer loop
      vertex 9.5 76 3
      vertex 9.5 81 8
      vertex 9.5 81 3
    endloop
  endfacet
  facet normal -1 -0 0
    outer loop
      vertex 9.5 81 8
      vertex 9.5 76 3
      vertex 9.5 76 8
    endloop
  endfacet
  facet normal -0 0 1
    outer loop
      vertex 9.5 81 8
      vertex 14.5 76 8
      vertex 14.5 81 8
    endloop
  endfacet
  facet normal 0 0 1
    outer loop
      vertex 14.5 76 8
      vertex 9.5 81 8
      vertex 9.5 76 8
    endloop
  endfacet
  facet normal 1 -0 0
    outer loop
      vertex 14.5 76 8
      vertex 14.5 81 3
      vertex 14.5 81 8
    endloop
  endfacet
  facet normal 1 0 0
    outer loop
      vertex 14.5 81 3
      vertex 14.5 76 8
      vertex 14.5 76 3
    endloop
  endfacet
  facet normal 0 1 -0
    outer loop
      vertex 14.5 81 3
      vertex 9.5 81 8
      vertex 14.5 81 8
    endloop
  endfacet
  facet normal 0 1 0
    outer loop
      vertex 9.5 81 8
      vertex 14.5 81 3
      vertex 9.5 81 3
    endloop
  endfacet
  facet normal 0 -1 0
    outer loop
      vertex 9.5 76 3
      vertex 14.5 76 8
      vertex 9.5 76 8
    endloop
  endfacet
  facet normal 0 -1 -0
    outer loop
      vertex 14.5 76 8
      vertex 9.5 76 3
      vertex 14.5 76 3
    endloop
  endfacet
  facet normal 0.707107 0.707107 0
    outer loop
      vertex -1.85786 20 3
      vertex -6 24.1421 0
      vertex -6 24.1421 3
    endloop
  endfacet
  facet normal 0.707107 0.707107 0
    outer loop
      vertex -6 24.1421 0
      vertex -1.85786 20 3
      vertex -1.85786 20 0
    endloop
  endfacet
  facet normal -0.707107 -0.707107 0
    outer loop
      vertex -6 10 0
      vertex -13.0711 17.0711 3
      vertex -13.0711 17.0711 0
    endloop
  endfacet
  facet normal -0.707107 -0.707107 0
    outer loop
      vertex -13.0711 17.0711 3
      vertex -6 10 0
      vertex -6 10 3
    endloop
  endfacet
  facet normal 0 0 -1
    outer loop
      vertex 25.5 10 0
      vertex 30.5 14 0
      vertex 30.5 0 0
    endloop
  endfacet
  facet normal -0 0 -1
    outer loop
      vertex 30.5 14 0
      vertex 25.5 10 0
      vertex 29.5 14 0
    endloop
  endfacet
  facet normal 0 0 -1
    outer loop
      vertex 18.1421 7 0
      vertex 25.5 10 0
      vertex 30.5 0 0
    endloop
  endfacet
  facet normal -0 0 -1
    outer loop
      vertex 25.5 10 0
      vertex 18.1421 7 0
      vertex 18.4289 17.0711 0
    endloop
  endfacet
  facet normal 0 0 -1
    outer loop
      vertex 14 0 0
      vertex 18.1421 7 0
      vertex 30.5 0 0
    endloop
  endfacet
  facet normal 0 0 -1
    outer loop
      vertex 18.1421 7 0
      vertex 14 0 0
      vertex 14 2.85786 0
    endloop
  endfacet
  facet normal 0 0 -1
    outer loop
      vertex 27.5 26 0
      vertex 30.5 20 0
      vertex 29.6421 20 0
    endloop
  endfacet
  facet normal 0 0 -1
    outer loop
      vertex 27.5 68 0
      vertex 30.5 20 0
      vertex 27.5 26 0
    endloop
  endfacet
  facet normal 0 0 -1
    outer loop
      vertex 30.5 20 0
      vertex 27.5 68 0
      vertex 30.5 75 0
    endloop
  endfacet
  facet normal 0 0 -1
    outer loop
      vertex 25.5 24.1421 0
      vertex 27.5 26 0
      vertex 29.6421 20 0
    endloop
  endfacet
  facet normal 0 0 -1
    outer loop
      vertex 11.0711 14.0711 0
      vertex 18.4289 17.0711 0
      vertex 18.1421 7 0
    endloop
  endfacet
  facet normal 0 0 -1
    outer loop
      vertex 17.5 24 0
      vertex 25.5 24.1421 0
      vertex 18.4289 17.0711 0
    endloop
  endfacet
  facet normal 0 0 -1
    outer loop
      vertex 17.5 26 0
      vertex 25.5 24.1421 0
      vertex 17.5 24 0
    endloop
  endfacet
  facet normal 0 0 -1
    outer loop
      vertex 25.5 24.1421 0
      vertex 17.5 26 0
      vertex 27.5 26 0
    endloop
  endfacet
  facet normal -0 0 -1
    outer loop
      vertex 30.5 75 0
      vertex 27.5 68 0
      vertex 29.5 75 0
    endloop
  endfacet
  facet normal 0 0 -1
    outer loop
      vertex 27.5 68 0
      vertex 25.5 71 0
      vertex 29.5 75 0
    endloop
  endfacet
  facet normal 0 0 -1
    outer loop
      vertex 17.5 68 0
      vertex 25.5 71 0
      vertex 27.5 68 0
    endloop
  endfacet
  facet normal -0 0 -1
    outer loop
      vertex 25.5 71 0
      vertex 17.5 68 0
      vertex 17.5 73 0
    endloop
  endfacet
  facet normal 0 0 -1
    outer loop
      vertex 29.6421 81 0
      vertex 30.5 87 0
      vertex 30.5 81 0
    endloop
  endfacet
  facet normal 0 0 -1
    outer loop
      vertex 25.5 85.1421 0
      vertex 30.5 87 0
      vertex 29.6421 81 0
    endloop
  endfacet
  facet normal 0 0 -1
    outer loop
      vertex 25.5 71 0
      vertex 17.5 73 0
      vertex 18.4289 78.0711 0
    endloop
  endfacet
  facet normal 0 0 -1
    outer loop
      vertex 25.5 85.1421 0
      vertex 14 87 0
      vertex 30.5 87 0
    endloop
  endfacet
  facet normal 0 0 -1
    outer loop
      vertex 18.4289 78.0711 0
      vertex 14 87 0
      vertex 25.5 85.1421 0
    endloop
  endfacet
  facet normal 0 0 -1
    outer loop
      vertex 3 73 0
      vertex 18.4289 78.0711 0
      vertex 17.5 73 0
    endloop
  endfacet
  facet normal 0 0 -1
    outer loop
      vertex 8 87 0
      vertex 14 90.8579 0
      vertex 14 87 0
    endloop
  endfacet
  facet normal -0 0 -1
    outer loop
      vertex 14 90.8579 0
      vertex 8 87 0
      vertex 8 91 0
    endloop
  endfacet
  facet normal 0 0 -1
    outer loop
      vertex 18.4289 78.0711 0
      vertex 8 87 0
      vertex 14 87 0
    endloop
  endfacet
  facet normal -0 0 -1
    outer loop
      vertex 18.4289 78.0711 0
      vertex 3 73 0
      vertex 8 87 0
    endloop
  endfacet
  facet normal 0 0 -1
    outer loop
      vertex 11.0711 14.0711 0
      vertex 0 20 0
      vertex 3 24 0
    endloop
  endfacet
  facet normal 0 0 -1
    outer loop
      vertex 0 75 0
      vertex 3 24 0
      vertex 0 20 0
    endloop
  endfacet
  facet normal 0 0 -1
    outer loop
      vertex 3 24 0
      vertex 0 75 0
      vertex 3 73 0
    endloop
  endfacet
  facet normal 0 0 -1
    outer loop
      vertex 0 81 0
      vertex 3 73 0
      vertex 0 75 0
    endloop
  endfacet
  facet normal 0 0 -1
    outer loop
      vertex 3 73 0
      vertex 0 81 0
      vertex 8 87 0
    endloop
  endfacet
  facet normal -0 0 -1
    outer loop
      vertex 8 87 0
      vertex 0 81 0
      vertex 0 87 0
    endloop
  endfacet
  facet normal 0 0 -1
    outer loop
      vertex 0 75 0
      vertex -1.85786 81 0
      vertex 0 81 0
    endloop
  endfacet
  facet normal 0 0 -1
    outer loop
      vertex -2 75 0
      vertex -1.85786 81 0
      vertex 0 75 0
    endloop
  endfacet
  facet normal 0 0 -1
    outer loop
      vertex -13.0711 78.0711 0
      vertex -2 75 0
      vertex -6 71 0
    endloop
  endfacet
  facet normal 0 0 -1
    outer loop
      vertex -2 75 0
      vertex -13.0711 78.0711 0
      vertex -1.85786 81 0
    endloop
  endfacet
  facet normal -0 0 -1
    outer loop
      vertex -1.85786 81 0
      vertex -13.0711 78.0711 0
      vertex -6 85.1421 0
    endloop
  endfacet
  facet normal 0 0 -1
    outer loop
      vertex 0 14 0
      vertex -1.85786 20 0
      vertex 0 20 0
    endloop
  endfacet
  facet normal 0 0 -1
    outer loop
      vertex -2 14 0
      vertex -1.85786 20 0
      vertex 0 14 0
    endloop
  endfacet
  facet normal 0 0 -1
    outer loop
      vertex -13.0711 17.0711 0
      vertex -2 14 0
      vertex -6 10 0
    endloop
  endfacet
  facet normal 0 0 -1
    outer loop
      vertex -2 14 0
      vertex -13.0711 17.0711 0
      vertex -1.85786 20 0
    endloop
  endfacet
  facet normal -0 0 -1
    outer loop
      vertex -1.85786 20 0
      vertex -13.0711 17.0711 0
      vertex -6 24.1421 0
    endloop
  endfacet
  facet normal 0 0 -1
    outer loop
      vertex 0 0 0
      vertex 8 3 0
      vertex 8 0 0
    endloop
  endfacet
  facet normal 0 0 -1
    outer loop
      vertex 0 20 0
      vertex 11.0711 14.0711 0
      vertex 0 14 0
    endloop
  endfacet
  facet normal 0 0 -1
    outer loop
      vertex 0 14 0
      vertex 4 7 0
      vertex 0 0 0
    endloop
  endfacet
  facet normal -0 0 -1
    outer loop
      vertex 8 3 0
      vertex 0 0 0
      vertex 4 7 0
    endloop
  endfacet
  facet normal -0 0 -1
    outer loop
      vertex 18.4289 17.0711 0
      vertex 11.0711 14.0711 0
      vertex 17.5 24 0
    endloop
  endfacet
  facet normal 0 0 -1
    outer loop
      vertex 0 14 0
      vertex 11.0711 14.0711 0
      vertex 4 7 0
    endloop
  endfacet
  facet normal 0 0 -1
    outer loop
      vertex 11.0711 14.0711 0
      vertex 3 24 0
      vertex 17.5 24 0
    endloop
  endfacet
  facet normal -0 0 -1
    outer loop
      vertex 18.1421 95 0
      vertex 14 90.8579 0
      vertex 11.0711 102.071 0
    endloop
  endfacet
  facet normal 0 0 -1
    outer loop
      vertex 14 90.8579 0
      vertex 8 91 0
      vertex 11.0711 102.071 0
    endloop
  endfacet
  facet normal 0 0 -1
    outer loop
      vertex 11.0711 102.071 0
      vertex 8 91 0
      vertex 4 95 0
    endloop
  endfacet
  facet normal 0.707107 -0.707107 0
    outer loop
      vertex -6 10 3
      vertex -2 14 0
      vertex -2 14 3
    endloop
  endfacet
  facet normal 0.707107 -0.707107 0
    outer loop
      vertex -2 14 0
      vertex -6 10 3
      vertex -6 10 0
    endloop
  endfacet
  facet normal -0.707107 0.707107 0
    outer loop
      vertex -13.0711 17.0711 0
      vertex -6 24.1421 3
      vertex -6 24.1421 0
    endloop
  endfacet
  facet normal -0.707107 0.707107 0
    outer loop
      vertex -6 24.1421 3
      vertex -13.0711 17.0711 0
      vertex -13.0711 17.0711 3
    endloop
  endfacet
  facet normal 0 1 -0
    outer loop
      vertex 0 20 0
      vertex -1.85786 20 3
      vertex 0 20 3
    endloop
  endfacet
  facet normal 0 1 0
    outer loop
      vertex -1.85786 20 3
      vertex 0 20 0
      vertex -1.85786 20 0
    endloop
  endfacet
  facet normal 0 -1 0
    outer loop
      vertex -2 14 0
      vertex 0 14 3
      vertex -2 14 3
    endloop
  endfacet
  facet normal 0 -1 -0
    outer loop
      vertex 0 14 3
      vertex -2 14 0
      vertex 0 14 0
    endloop
  endfacet
  facet normal 0.707107 0.707107 0
    outer loop
      vertex -1.85786 81 3
      vertex -6 85.1421 0
      vertex -6 85.1421 3
    endloop
  endfacet
  facet normal 0.707107 0.707107 0
    outer loop
      vertex -6 85.1421 0
      vertex -1.85786 81 3
      vertex -1.85786 81 0
    endloop
  endfacet
  facet normal -0.707107 -0.707107 0
    outer loop
      vertex -6 71 0
      vertex -13.0711 78.0711 3
      vertex -13.0711 78.0711 0
    endloop
  endfacet
  facet normal -0.707107 -0.707107 0
    outer loop
      vertex -13.0711 78.0711 3
      vertex -6 71 0
      vertex -6 71 3
    endloop
  endfacet
  facet normal 0.707107 -0.707107 0
    outer loop
      vertex -6 71 3
      vertex -2 75 0
      vertex -2 75 3
    endloop
  endfacet
  facet normal 0.707107 -0.707107 0
    outer loop
      vertex -2 75 0
      vertex -6 71 3
      vertex -6 71 0
    endloop
  endfacet
  facet normal -0.707107 0.707107 0
    outer loop
      vertex -13.0711 78.0711 0
      vertex -6 85.1421 3
      vertex -6 85.1421 0
    endloop
  endfacet
  facet normal -0.707107 0.707107 0
    outer loop
      vertex -6 85.1421 3
      vertex -13.0711 78.0711 0
      vertex -13.0711 78.0711 3
    endloop
  endfacet
  facet normal 0 1 -0
    outer loop
      vertex 0 81 0
      vertex -1.85786 81 3
      vertex 0 81 3
    endloop
  endfacet
  facet normal 0 1 0
    outer loop
      vertex -1.85786 81 3
      vertex 0 81 0
      vertex -1.85786 81 0
    endloop
  endfacet
  facet normal 0 -1 0
    outer loop
      vertex -2 75 0
      vertex 0 75 3
      vertex -2 75 3
    endloop
  endfacet
  facet normal 0 -1 -0
    outer loop
      vertex 0 75 3
      vertex -2 75 0
      vertex 0 75 0
    endloop
  endfacet
  facet normal 0.707107 -0.707107 0
    outer loop
      vertex 14 90.8579 3
      vertex 18.1421 95 0
      vertex 18.1421 95 3
    endloop
  endfacet
  facet normal 0.707107 -0.707107 0
    outer loop
      vertex 18.1421 95 0
      vertex 14 90.8579 3
      vertex 14 90.8579 0
    endloop
  endfacet
  facet normal -0.707107 0.707107 0
    outer loop
      vertex 4 95 0
      vertex 11.0711 102.071 3
      vertex 11.0711 102.071 0
    endloop
  endfacet
  facet normal -0.707107 0.707107 0
    outer loop
      vertex 11.0711 102.071 3
      vertex 4 95 0
      vertex 4 95 3
    endloop
  endfacet
  facet normal -0.707107 -0.707107 0
    outer loop
      vertex 8 91 0
      vertex 4 95 3
      vertex 4 95 0
    endloop
  endfacet
  facet normal -0.707107 -0.707107 0
    outer loop
      vertex 4 95 3
      vertex 8 91 0
      vertex 8 91 3
    endloop
  endfacet
  facet normal 0.707107 0.707107 0
    outer loop
      vertex 18.1421 95 3
      vertex 11.0711 102.071 0
      vertex 11.0711 102.071 3
    endloop
  endfacet
  facet normal 0.707107 0.707107 0
    outer loop
      vertex 11.0711 102.071 0
      vertex 18.1421 95 3
      vertex 18.1421 95 0
    endloop
  endfacet
  facet normal 1 -0 0
    outer loop
      vertex 14 87 3
      vertex 14 90.8579 0
      vertex 14 90.8579 3
    endloop
  endfacet
  facet normal 1 0 0
    outer loop
      vertex 14 90.8579 0
      vertex 14 87 3
      vertex 14 87 0
    endloop
  endfacet
  facet normal -1 0 0
    outer loop
      vertex 8 87 0
      vertex 8 91 3
      vertex 8 91 0
    endloop
  endfacet
  facet normal -1 -0 0
    outer loop
      vertex 8 91 3
      vertex 8 87 0
      vertex 8 87 3
    endloop
  endfacet
  facet normal -1 0 0
    outer loop
      vertex 0 0 0
      vertex 0 14 3
      vertex 0 14 0
    endloop
  endfacet
  facet normal -1 -0 0
    outer loop
      vertex 0 14 3
      vertex 0 0 0
      vertex 0 0 3
    endloop
  endfacet
  facet normal -1 0 0
    outer loop
      vertex 0 81 0
      vertex 0 87 3
      vertex 0 87 0
    endloop
  endfacet
  facet normal -1 -0 0
    outer loop
      vertex 0 87 3
      vertex 0 81 0
      vertex 0 81 3
    endloop
  endfacet
  facet normal -1 0 0
    outer loop
      vertex 0 20 0
      vertex 0 75 3
      vertex 0 75 0
    endloop
  endfacet
  facet normal -1 -0 0
    outer loop
      vertex 0 75 3
      vertex 0 20 0
      vertex 0 20 3
    endloop
  endfacet
  facet normal 1 -0 0
    outer loop
      vertex 30.5 0 3
      vertex 30.5 14 0
      vertex 30.5 14 3
    endloop
  endfacet
  facet normal 1 0 0
    outer loop
      vertex 30.5 14 0
      vertex 30.5 0 3
      vertex 30.5 0 0
    endloop
  endfacet
  facet normal 1 -0 0
    outer loop
      vertex 30.5 81 3
      vertex 30.5 87 0
      vertex 30.5 87 3
    endloop
  endfacet
  facet normal 1 0 0
    outer loop
      vertex 30.5 87 0
      vertex 30.5 81 3
      vertex 30.5 81 0
    endloop
  endfacet
  facet normal 1 -0 0
    outer loop
      vertex 30.5 20 3
      vertex 30.5 75 0
      vertex 30.5 75 3
    endloop
  endfacet
  facet normal 1 0 0
    outer loop
      vertex 30.5 75 0
      vertex 30.5 20 3
      vertex 30.5 20 0
    endloop
  endfacet
  facet normal 0 -1 0
    outer loop
      vertex 0 0 0
      vertex 8 0 3
      vertex 0 0 3
    endloop
  endfacet
  facet normal 0 -1 -0
    outer loop
      vertex 8 0 3
      vertex 0 0 0
      vertex 8 0 0
    endloop
  endfacet
  facet normal 0 -1 0
    outer loop
      vertex 14 0 0
      vertex 30.5 0 3
      vertex 14 0 3
    endloop
  endfacet
  facet normal 0 -1 -0
    outer loop
      vertex 30.5 0 3
      vertex 14 0 0
      vertex 30.5 0 0
    endloop
  endfacet
  facet normal 0 1 -0
    outer loop
      vertex 30.5 87 0
      vertex 14 87 3
      vertex 30.5 87 3
    endloop
  endfacet
  facet normal 0 1 0
    outer loop
      vertex 14 87 3
      vertex 30.5 87 0
      vertex 14 87 0
    endloop
  endfacet
  facet normal 0 1 -0
    outer loop
      vertex 8 87 0
      vertex 0 87 3
      vertex 8 87 3
    endloop
  endfacet
  facet normal 0 1 0
    outer loop
      vertex 0 87 3
      vertex 8 87 0
      vertex 0 87 0
    endloop
  endfacet
  facet normal -0.707107 0.707107 0
    outer loop
      vertex 14 2.85786 0
      vertex 18.1421 7 3
      vertex 18.1421 7 0
    endloop
  endfacet
  facet normal -0.707107 0.707107 0
    outer loop
      vertex 18.1421 7 3
      vertex 14 2.85786 0
      vertex 14 2.85786 3
    endloop
  endfacet
  facet normal 0.707107 -0.707107 0
    outer loop
      vertex 4 7 3
      vertex 11.0711 14.0711 0
      vertex 11.0711 14.0711 3
    endloop
  endfacet
  facet normal 0.707107 -0.707107 0
    outer loop
      vertex 11.0711 14.0711 0
      vertex 4 7 3
      vertex 4 7 0
    endloop
  endfacet
  facet normal 0.707107 0.707107 0
    outer loop
      vertex 8 3 3
      vertex 4 7 0
      vertex 4 7 3
    endloop
  endfacet
  facet normal 0.707107 0.707107 0
    outer loop
      vertex 4 7 0
      vertex 8 3 3
      vertex 8 3 0
    endloop
  endfacet
  facet normal -0.707107 -0.707107 0
    outer loop
      vertex 18.1421 7 0
      vertex 11.0711 14.0711 3
      vertex 11.0711 14.0711 0
    endloop
  endfacet
  facet normal -0.707107 -0.707107 0
    outer loop
      vertex 11.0711 14.0711 3
      vertex 18.1421 7 0
      vertex 18.1421 7 3
    endloop
  endfacet
  facet normal -1 0 0
    outer loop
      vertex 14 0 0
      vertex 14 2.85786 3
      vertex 14 2.85786 0
    endloop
  endfacet
  facet normal -1 -0 0
    outer loop
      vertex 14 2.85786 3
      vertex 14 0 0
      vertex 14 0 3
    endloop
  endfacet
  facet normal 1 -0 0
    outer loop
      vertex 8 0 3
      vertex 8 3 0
      vertex 8 3 3
    endloop
  endfacet
  facet normal 1 0 0
    outer loop
      vertex 8 3 0
      vertex 8 0 3
      vertex 8 0 0
    endloop
  endfacet
  facet normal -0.707107 -0.707107 0
    outer loop
      vertex 29.6421 20 0
      vertex 25.5 24.1421 3
      vertex 25.5 24.1421 0
    endloop
  endfacet
  facet normal -0.707107 -0.707107 0
    outer loop
      vertex 25.5 24.1421 3
      vertex 29.6421 20 0
      vertex 29.6421 20 3
    endloop
  endfacet
  facet normal 0.707107 0.707107 0
    outer loop
      vertex 25.5 10 3
      vertex 18.4289 17.0711 0
      vertex 18.4289 17.0711 3
    endloop
  endfacet
  facet normal 0.707107 0.707107 0
    outer loop
      vertex 18.4289 17.0711 0
      vertex 25.5 10 3
      vertex 25.5 10 0
    endloop
  endfacet
  facet normal -0.707107 0.707107 0
    outer loop
      vertex 25.5 10 0
      vertex 29.5 14 3
      vertex 29.5 14 0
    endloop
  endfacet
  facet normal -0.707107 0.707107 0
    outer loop
      vertex 29.5 14 3
      vertex 25.5 10 0
      vertex 25.5 10 3
    endloop
  endfacet
  facet normal 0.707107 -0.707107 0
    outer loop
      vertex 18.4289 17.0711 3
      vertex 25.5 24.1421 0
      vertex 25.5 24.1421 3
    endloop
  endfacet
  facet normal 0.707107 -0.707107 0
    outer loop
      vertex 25.5 24.1421 0
      vertex 18.4289 17.0711 3
      vertex 18.4289 17.0711 0
    endloop
  endfacet
  facet normal 0 -1 0
    outer loop
      vertex 29.6421 20 0
      vertex 30.5 20 3
      vertex 29.6421 20 3
    endloop
  endfacet
  facet normal 0 -1 -0
    outer loop
      vertex 30.5 20 3
      vertex 29.6421 20 0
      vertex 30.5 20 0
    endloop
  endfacet
  facet normal 0 1 -0
    outer loop
      vertex 30.5 14 0
      vertex 29.5 14 3
      vertex 30.5 14 3
    endloop
  endfacet
  facet normal 0 1 0
    outer loop
      vertex 29.5 14 3
      vertex 30.5 14 0
      vertex 29.5 14 0
    endloop
  endfacet
  facet normal -0.707107 -0.707107 0
    outer loop
      vertex 29.6421 81 0
      vertex 25.5 85.1421 3
      vertex 25.5 85.1421 0
    endloop
  endfacet
  facet normal -0.707107 -0.707107 0
    outer loop
      vertex 25.5 85.1421 3
      vertex 29.6421 81 0
      vertex 29.6421 81 3
    endloop
  endfacet
  facet normal 0.707107 0.707107 0
    outer loop
      vertex 25.5 71 3
      vertex 18.4289 78.0711 0
      vertex 18.4289 78.0711 3
    endloop
  endfacet
  facet normal 0.707107 0.707107 0
    outer loop
      vertex 18.4289 78.0711 0
      vertex 25.5 71 3
      vertex 25.5 71 0
    endloop
  endfacet
  facet normal -0.707107 0.707107 0
    outer loop
      vertex 25.5 71 0
      vertex 29.5 75 3
      vertex 29.5 75 0
    endloop
  endfacet
  facet normal -0.707107 0.707107 0
    outer loop
      vertex 29.5 75 3
      vertex 25.5 71 0
      vertex 25.5 71 3
    endloop
  endfacet
  facet normal 0.707107 -0.707107 0
    outer loop
      vertex 18.4289 78.0711 3
      vertex 25.5 85.1421 0
      vertex 25.5 85.1421 3
    endloop
  endfacet
  facet normal 0.707107 -0.707107 0
    outer loop
      vertex 25.5 85.1421 0
      vertex 18.4289 78.0711 3
      vertex 18.4289 78.0711 0
    endloop
  endfacet
  facet normal 0 -1 0
    outer loop
      vertex 29.6421 81 0
      vertex 30.5 81 3
      vertex 29.6421 81 3
    endloop
  endfacet
  facet normal 0 -1 -0
    outer loop
      vertex 30.5 81 3
      vertex 29.6421 81 0
      vertex 30.5 81 0
    endloop
  endfacet
  facet normal 0 1 -0
    outer loop
      vertex 30.5 75 0
      vertex 29.5 75 3
      vertex 30.5 75 3
    endloop
  endfacet
  facet normal 0 1 0
    outer loop
      vertex 29.5 75 3
      vertex 30.5 75 0
      vertex 29.5 75 0
    endloop
  endfacet
  facet normal 1 -0 0
    outer loop
      vertex 3 24 3
      vertex 3 73 0
      vertex 3 73 3
    endloop
  endfacet
  facet normal 1 0 0
    outer loop
      vertex 3 73 0
      vertex 3 24 3
      vertex 3 24 0
    endloop
  endfacet
  facet normal -1 0 0
    outer loop
      vertex 17.5 24 0
      vertex 17.5 26 3
      vertex 17.5 26 0
    endloop
  endfacet
  facet normal -1 -0 0
    outer loop
      vertex 17.5 26 3
      vertex 17.5 24 0
      vertex 17.5 24 3
    endloop
  endfacet
  facet normal -1 0 0
    outer loop
      vertex 17.5 68 0
      vertex 17.5 73 3
      vertex 17.5 73 0
    endloop
  endfacet
  facet normal -1 -0 0
    outer loop
      vertex 17.5 73 3
      vertex 17.5 68 0
      vertex 17.5 68 3
    endloop
  endfacet
  facet normal 0 1 -0
    outer loop
      vertex 17.5 24 0
      vertex 3 24 3
      vertex 17.5 24 3
    endloop
  endfacet
  facet normal 0 1 0
    outer loop
      vertex 3 24 3
      vertex 17.5 24 0
      vertex 3 24 0
    endloop
  endfacet
  facet normal 0 -1 0
    outer loop
      vertex 3 73 0
      vertex 17.5 73 3
      vertex 3 73 3
    endloop
  endfacet
  facet normal 0 -1 -0
    outer loop
      vertex 17.5 73 3
      vertex 3 73 0
      vertex 17.5 73 0
    endloop
  endfacet
  facet normal -1 0 0
    outer loop
      vertex 27.5 26 0
      vertex 27.5 68 3
      vertex 27.5 68 0
    endloop
  endfacet
  facet normal -1 -0 0
    outer loop
      vertex 27.5 68 3
      vertex 27.5 26 0
      vertex 27.5 26 3
    endloop
  endfacet
  facet normal 0 -1 0
    outer loop
      vertex 17.5 68 0
      vertex 27.5 68 3
      vertex 17.5 68 3
    endloop
  endfacet
  facet normal 0 -1 -0
    outer loop
      vertex 27.5 68 3
      vertex 17.5 68 0
      vertex 27.5 68 0
    endloop
  endfacet
  facet normal 0 1 -0
    outer loop
      vertex 27.5 26 0
      vertex 17.5 26 3
      vertex 27.5 26 3
    endloop
  endfacet
  facet normal 0 1 0
    outer loop
      vertex 17.5 26 3
      vertex 27.5 26 0
      vertex 17.5 26 0
    endloop
  endfacet
endsolid OpenSCAD_Model
