solid OpenSCAD_Model
  facet normal -1 0 0
    outer loop
      vertex 3 18.5 3
      vertex 3 23.5 8
      vertex 3 23.5 3
    endloop
  endfacet
  facet normal -1 -0 0
    outer loop
      vertex 3 23.5 8
      vertex 3 18.5 3
      vertex 3 18.5 8
    endloop
  endfacet
  facet normal -0 0 1
    outer loop
      vertex 3 23.5 8
      vertex 8 18.5 8
      vertex 8 23.5 8
    endloop
  endfacet
  facet normal 0 0 1
    outer loop
      vertex 8 18.5 8
      vertex 3 23.5 8
      vertex 3 18.5 8
    endloop
  endfacet
  facet normal 1 -0 0
    outer loop
      vertex 8 18.5 8
      vertex 8 23.5 3
      vertex 8 23.5 8
    endloop
  endfacet
  facet normal 1 0 0
    outer loop
      vertex 8 23.5 3
      vertex 8 18.5 8
      vertex 8 18.5 3
    endloop
  endfacet
  facet normal 0 1 -0
    outer loop
      vertex 8 23.5 3
      vertex 3 23.5 8
      vertex 8 23.5 8
    endloop
  endfacet
  facet normal 0 1 0
    outer loop
      vertex 3 23.5 8
      vertex 8 23.5 3
      vertex 3 23.5 3
    endloop
  endfacet
  facet normal 0 0 1
    outer loop
      vertex 8 31 3
      vertex 3 23.5 3
      vertex 8 23.5 3
    endloop
  endfacet
  facet normal 0 0 1
    outer loop
      vertex 0 20 3
      vertex 3 23.5 3
      vertex 0 31 3
    endloop
  endfacet
  facet normal -0 0 1
    outer loop
      vertex 0 31 3
      vertex 3 23.5 3
      vertex 8 31 3
    endloop
  endfacet
  facet normal -0 0 1
    outer loop
      vertex 8 35 3
      vertex 14 34.8579 3
      vertex 11.0711 46.0711 3
    endloop
  endfacet
  facet normal 0 0 1
    outer loop
      vertex 11.0711 46.0711 3
      vertex 14 34.8579 3
      vertex 18.1421 39 3
    endloop
  endfacet
  facet normal -0 0 1
    outer loop
      vertex 25.5 24.1421 3
      vertex 30.5 20 3
      vertex 30.5 31 3
    endloop
  endfacet
  facet normal 0 0 1
    outer loop
      vertex 30.5 20 3
      vertex 25.5 24.1421 3
      vertex 29.6421 20 3
    endloop
  endfacet
  facet normal -0 0 1
    outer loop
      vertex 14 31 3
      vertex 25.5 24.1421 3
      vertex 30.5 31 3
    endloop
  endfacet
  facet normal -0 0 1
    outer loop
      vertex 14.5 18.5 3
      vertex 18.4289 17.0711 3
      vertex 14.5 23.5 3
    endloop
  endfacet
  facet normal 0 0 1
    outer loop
      vertex 25.5 24.1421 3
      vertex 14.5 23.5 3
      vertex 18.4289 17.0711 3
    endloop
  endfacet
  facet normal 0 0 1
    outer loop
      vertex 25.5 24.1421 3
      vertex 14 31 3
      vertex 14.5 23.5 3
    endloop
  endfacet
  facet normal 0 0 1
    outer loop
      vertex 8 31 3
      vertex 14 34.8579 3
      vertex 8 35 3
    endloop
  endfacet
  facet normal 0 0 1
    outer loop
      vertex 14 34.8579 3
      vertex 8 31 3
      vertex 14 31 3
    endloop
  endfacet
  facet normal 0 0 1
    outer loop
      vertex 14 31 3
      vertex 9.5 23.5 3
      vertex 14.5 23.5 3
    endloop
  endfacet
  facet normal 0 -0 1
    outer loop
      vertex 9.5 23.5 3
      vertex 14 31 3
      vertex 8 31 3
    endloop
  endfacet
  facet normal 0 -0 1
    outer loop
      vertex 8 35 3
      vertex 11.0711 46.0711 3
      vertex 4 39 3
    endloop
  endfacet
  facet normal 0 0 1
    outer loop
      vertex 25.5 10 3
      vertex 30.5 14 3
      vertex 29.5 14 3
    endloop
  endfacet
  facet normal 0 0 1
    outer loop
      vertex 30.5 14 3
      vertex 25.5 10 3
      vertex 30.5 0 3
    endloop
  endfacet
  facet normal 0 0 1
    outer loop
      vertex 18.1421 7 3
      vertex 25.5 10 3
      vertex 18.4289 17.0711 3
    endloop
  endfacet
  facet normal 0 0 1
    outer loop
      vertex 25.5 10 3
      vertex 18.1421 7 3
      vertex 30.5 0 3
    endloop
  endfacet
  facet normal 0 0 1
    outer loop
      vertex 14 0 3
      vertex 18.1421 7 3
      vertex 14 2.85786 3
    endloop
  endfacet
  facet normal 0 0 1
    outer loop
      vertex 18.1421 7 3
      vertex 14 0 3
      vertex 30.5 0 3
    endloop
  endfacet
  facet normal 0 0 1
    outer loop
      vertex 11.0711 14.0711 3
      vertex 18.4289 17.0711 3
      vertex 14.5 18.5 3
    endloop
  endfacet
  facet normal 0 0 1
    outer loop
      vertex 18.4289 17.0711 3
      vertex 11.0711 14.0711 3
      vertex 18.1421 7 3
    endloop
  endfacet
  facet normal -0 0 1
    outer loop
      vertex 9.5 18.5 3
      vertex 11.0711 14.0711 3
      vertex 14.5 18.5 3
    endloop
  endfacet
  facet normal 0 0 1
    outer loop
      vertex 8 23.5 3
      vertex 9.5 23.5 3
      vertex 8 31 3
    endloop
  endfacet
  facet normal 0 0 1
    outer loop
      vertex 9.5 23.5 3
      vertex 8 23.5 3
      vertex 9.5 18.5 3
    endloop
  endfacet
  facet normal 0 0 1
    outer loop
      vertex 8 18.5 3
      vertex 9.5 18.5 3
      vertex 8 23.5 3
    endloop
  endfacet
  facet normal -0 0 1
    outer loop
      vertex 8 18.5 3
      vertex 11.0711 14.0711 3
      vertex 9.5 18.5 3
    endloop
  endfacet
  facet normal 0 0 1
    outer loop
      vertex 0 14 3
      vertex 11.0711 14.0711 3
      vertex 8 18.5 3
    endloop
  endfacet
  facet normal 0 0 1
    outer loop
      vertex 0 14 3
      vertex 8 18.5 3
      vertex 3 18.5 3
    endloop
  endfacet
  facet normal 0 0 1
    outer loop
      vertex 0 0 3
      vertex 8 3 3
      vertex 4 7 3
    endloop
  endfacet
  facet normal 0 0 1
    outer loop
      vertex 3 23.5 3
      vertex 0 20 3
      vertex 3 18.5 3
    endloop
  endfacet
  facet normal 0 0 1
    outer loop
      vertex 0 14 3
      vertex 3 18.5 3
      vertex 0 20 3
    endloop
  endfacet
  facet normal 0 0 1
    outer loop
      vertex 11.0711 14.0711 3
      vertex 0 14 3
      vertex 4 7 3
    endloop
  endfacet
  facet normal 0 0 1
    outer loop
      vertex 0 0 3
      vertex 4 7 3
      vertex 0 14 3
    endloop
  endfacet
  facet normal 0 0 1
    outer loop
      vertex 8 3 3
      vertex 0 0 3
      vertex 8 0 3
    endloop
  endfacet
  facet normal -0 0 1
    outer loop
      vertex -1.85786 20 3
      vertex 0 14 3
      vertex 0 20 3
    endloop
  endfacet
  facet normal 0 0 1
    outer loop
      vertex -1.85786 20 3
      vertex -2 14 3
      vertex 0 14 3
    endloop
  endfacet
  facet normal 0 0 1
    outer loop
      vertex -13.0711 17.0711 3
      vertex -1.85786 20 3
      vertex -6 24.1421 3
    endloop
  endfacet
  facet normal 0 0 1
    outer loop
      vertex -1.85786 20 3
      vertex -13.0711 17.0711 3
      vertex -2 14 3
    endloop
  endfacet
  facet normal 0 0 1
    outer loop
      vertex -2 14 3
      vertex -13.0711 17.0711 3
      vertex -6 10 3
    endloop
  endfacet
  facet normal 0 -1 0
    outer loop
      vertex 3 18.5 3
      vertex 8 18.5 8
      vertex 3 18.5 8
    endloop
  endfacet
  facet normal 0 -1 -0
    outer loop
      vertex 8 18.5 8
      vertex 3 18.5 3
      vertex 8 18.5 3
    endloop
  endfacet
  facet normal -1 0 0
    outer loop
      vertex 9.5 18.5 3
      vertex 9.5 23.5 8
      vertex 9.5 23.5 3
    endloop
  endfacet
  facet normal -1 -0 0
    outer loop
      vertex 9.5 23.5 8
      vertex 9.5 18.5 3
      vertex 9.5 18.5 8
    endloop
  endfacet
  facet normal -0 0 1
    outer loop
      vertex 9.5 23.5 8
      vertex 14.5 18.5 8
      vertex 14.5 23.5 8
    endloop
  endfacet
  facet normal 0 0 1
    outer loop
      vertex 14.5 18.5 8
      vertex 9.5 23.5 8
      vertex 9.5 18.5 8
    endloop
  endfacet
  facet normal 1 -0 0
    outer loop
      vertex 14.5 18.5 8
      vertex 14.5 23.5 3
      vertex 14.5 23.5 8
    endloop
  endfacet
  facet normal 1 0 0
    outer loop
      vertex 14.5 23.5 3
      vertex 14.5 18.5 8
      vertex 14.5 18.5 3
    endloop
  endfacet
  facet normal 0 1 -0
    outer loop
      vertex 14.5 23.5 3
      vertex 9.5 23.5 8
      vertex 14.5 23.5 8
    endloop
  endfacet
  facet normal 0 1 0
    outer loop
      vertex 9.5 23.5 8
      vertex 14.5 23.5 3
      vertex 9.5 23.5 3
    endloop
  endfacet
  facet normal 0 -1 0
    outer loop
      vertex 9.5 18.5 3
      vertex 14.5 18.5 8
      vertex 9.5 18.5 8
    endloop
  endfacet
  facet normal 0 -1 -0
    outer loop
      vertex 14.5 18.5 8
      vertex 9.5 18.5 3
      vertex 14.5 18.5 3
    endloop
  endfacet
  facet normal 0.707107 0.707107 0
    outer loop
      vertex -1.85786 20 3
      vertex -6 24.1421 0
      vertex -6 24.1421 3
    endloop
  endfacet
  facet normal 0.707107 0.707107 0
    outer loop
      vertex -6 24.1421 0
      vertex -1.85786 20 3
      vertex -1.85786 20 0
    endloop
  endfacet
  facet normal -0.707107 -0.707107 0
    outer loop
      vertex -6 10 0
      vertex -13.0711 17.0711 3
      vertex -13.0711 17.0711 0
    endloop
  endfacet
  facet normal -0.707107 -0.707107 0
    outer loop
      vertex -13.0711 17.0711 3
      vertex -6 10 0
      vertex -6 10 3
    endloop
  endfacet
  facet normal 0 0 -1
    outer loop
      vertex 0 0 0
      vertex 8 3 0
      vertex 8 0 0
    endloop
  endfacet
  facet normal -0 0 -1
    outer loop
      vertex 8 3 0
      vertex 0 0 0
      vertex 4 7 0
    endloop
  endfacet
  facet normal 0 0 -1
    outer loop
      vertex 25.5 10 0
      vertex 30.5 14 0
      vertex 30.5 0 0
    endloop
  endfacet
  facet normal -0 0 -1
    outer loop
      vertex 30.5 14 0
      vertex 25.5 10 0
      vertex 29.5 14 0
    endloop
  endfacet
  facet normal 0 0 -1
    outer loop
      vertex 18.1421 7 0
      vertex 25.5 10 0
      vertex 30.5 0 0
    endloop
  endfacet
  facet normal -0 0 -1
    outer loop
      vertex 25.5 10 0
      vertex 18.1421 7 0
      vertex 18.4289 17.0711 0
    endloop
  endfacet
  facet normal 0 0 -1
    outer loop
      vertex 14 0 0
      vertex 18.1421 7 0
      vertex 30.5 0 0
    endloop
  endfacet
  facet normal 0 0 -1
    outer loop
      vertex 18.1421 7 0
      vertex 14 0 0
      vertex 14 2.85786 0
    endloop
  endfacet
  facet normal 0 0 -1
    outer loop
      vertex 25.5 24.1421 0
      vertex 30.5 20 0
      vertex 29.6421 20 0
    endloop
  endfacet
  facet normal 0 0 -1
    outer loop
      vertex 30.5 20 0
      vertex 25.5 24.1421 0
      vertex 30.5 31 0
    endloop
  endfacet
  facet normal 0 0 -1
    outer loop
      vertex 14 31 0
      vertex 25.5 24.1421 0
      vertex 18.4289 17.0711 0
    endloop
  endfacet
  facet normal 0 0 -1
    outer loop
      vertex 25.5 24.1421 0
      vertex 14 31 0
      vertex 30.5 31 0
    endloop
  endfacet
  facet normal 0 0 -1
    outer loop
      vertex 11.0711 14.0711 0
      vertex 18.4289 17.0711 0
      vertex 18.1421 7 0
    endloop
  endfacet
  facet normal 0 0 -1
    outer loop
      vertex 8 31 0
      vertex 14 31 0
      vertex 11.0711 14.0711 0
    endloop
  endfacet
  facet normal -0 0 -1
    outer loop
      vertex 18.4289 17.0711 0
      vertex 11.0711 14.0711 0
      vertex 14 31 0
    endloop
  endfacet
  facet normal 0 0 -1
    outer loop
      vertex 14 34.8579 0
      vertex 11.0711 46.0711 0
      vertex 18.1421 39 0
    endloop
  endfacet
  facet normal 0 0 -1
    outer loop
      vertex 14 31 0
      vertex 8 31 0
      vertex 14 34.8579 0
    endloop
  endfacet
  facet normal 0 0 -1
    outer loop
      vertex 8 35 0
      vertex 14 34.8579 0
      vertex 8 31 0
    endloop
  endfacet
  facet normal 0 0 -1
    outer loop
      vertex 0 14 0
      vertex 11.0711 14.0711 0
      vertex 4 7 0
    endloop
  endfacet
  facet normal 0 0 -1
    outer loop
      vertex 0 14 0
      vertex 4 7 0
      vertex 0 0 0
    endloop
  endfacet
  facet normal -0 0 -1
    outer loop
      vertex 11.0711 14.0711 0
      vertex 0 14 0
      vertex 0 20 0
    endloop
  endfacet
  facet normal 0 0 -1
    outer loop
      vertex 11.0711 14.0711 0
      vertex 0 20 0
      vertex 8 31 0
    endloop
  endfacet
  facet normal -0 0 -1
    outer loop
      vertex 8 31 0
      vertex 0 20 0
      vertex 0 31 0
    endloop
  endfacet
  facet normal 0 0 -1
    outer loop
      vertex 14 34.8579 0
      vertex 8 35 0
      vertex 11.0711 46.0711 0
    endloop
  endfacet
  facet normal 0 0 -1
    outer loop
      vertex 11.0711 46.0711 0
      vertex 8 35 0
      vertex 4 39 0
    endloop
  endfacet
  facet normal 0 0 -1
    outer loop
      vertex 0 14 0
      vertex -1.85786 20 0
      vertex 0 20 0
    endloop
  endfacet
  facet normal 0 0 -1
    outer loop
      vertex -2 14 0
      vertex -1.85786 20 0
      vertex 0 14 0
    endloop
  endfacet
  facet normal 0 0 -1
    outer loop
      vertex -13.0711 17.0711 0
      vertex -2 14 0
      vertex -6 10 0
    endloop
  endfacet
  facet normal 0 0 -1
    outer loop
      vertex -2 14 0
      vertex -13.0711 17.0711 0
      vertex -1.85786 20 0
    endloop
  endfacet
  facet normal -0 0 -1
    outer loop
      vertex -1.85786 20 0
      vertex -13.0711 17.0711 0
      vertex -6 24.1421 0
    endloop
  endfacet
  facet normal 0.707107 -0.707107 0
    outer loop
      vertex -6 10 3
      vertex -2 14 0
      vertex -2 14 3
    endloop
  endfacet
  facet normal 0.707107 -0.707107 0
    outer loop
      vertex -2 14 0
      vertex -6 10 3
      vertex -6 10 0
    endloop
  endfacet
  facet normal -0.707107 0.707107 0
    outer loop
      vertex -13.0711 17.0711 0
      vertex -6 24.1421 3
      vertex -6 24.1421 0
    endloop
  endfacet
  facet normal -0.707107 0.707107 0
    outer loop
      vertex -6 24.1421 3
      vertex -13.0711 17.0711 0
      vertex -13.0711 17.0711 3
    endloop
  endfacet
  facet normal 0 1 -0
    outer loop
      vertex 0 20 0
      vertex -1.85786 20 3
      vertex 0 20 3
    endloop
  endfacet
  facet normal 0 1 0
    outer loop
      vertex -1.85786 20 3
      vertex 0 20 0
      vertex -1.85786 20 0
    endloop
  endfacet
  facet normal 0 -1 0
    outer loop
      vertex -2 14 0
      vertex 0 14 3
      vertex -2 14 3
    endloop
  endfacet
  facet normal 0 -1 -0
    outer loop
      vertex 0 14 3
      vertex -2 14 0
      vertex 0 14 0
    endloop
  endfacet
  facet normal 0.707107 -0.707107 0
    outer loop
      vertex 14 34.8579 3
      vertex 18.1421 39 0
      vertex 18.1421 39 3
    endloop
  endfacet
  facet normal 0.707107 -0.707107 0
    outer loop
      vertex 18.1421 39 0
      vertex 14 34.8579 3
      vertex 14 34.8579 0
    endloop
  endfacet
  facet normal -0.707107 0.707107 0
    outer loop
      vertex 4 39 0
      vertex 11.0711 46.0711 3
      vertex 11.0711 46.0711 0
    endloop
  endfacet
  facet normal -0.707107 0.707107 0
    outer loop
      vertex 11.0711 46.0711 3
      vertex 4 39 0
      vertex 4 39 3
    endloop
  endfacet
  facet normal -0.707107 -0.707107 0
    outer loop
      vertex 8 35 0
      vertex 4 39 3
      vertex 4 39 0
    endloop
  endfacet
  facet normal -0.707107 -0.707107 0
    outer loop
      vertex 4 39 3
      vertex 8 35 0
      vertex 8 35 3
    endloop
  endfacet
  facet normal 0.707107 0.707107 0
    outer loop
      vertex 18.1421 39 3
      vertex 11.0711 46.0711 0
      vertex 11.0711 46.0711 3
    endloop
  endfacet
  facet normal 0.707107 0.707107 0
    outer loop
      vertex 11.0711 46.0711 0
      vertex 18.1421 39 3
      vertex 18.1421 39 0
    endloop
  endfacet
  facet normal 1 -0 0
    outer loop
      vertex 14 31 3
      vertex 14 34.8579 0
      vertex 14 34.8579 3
    endloop
  endfacet
  facet normal 1 0 0
    outer loop
      vertex 14 34.8579 0
      vertex 14 31 3
      vertex 14 31 0
    endloop
  endfacet
  facet normal -1 0 0
    outer loop
      vertex 8 31 0
      vertex 8 35 3
      vertex 8 35 0
    endloop
  endfacet
  facet normal -1 -0 0
    outer loop
      vertex 8 35 3
      vertex 8 31 0
      vertex 8 31 3
    endloop
  endfacet
  facet normal -1 0 0
    outer loop
      vertex 0 0 0
      vertex 0 14 3
      vertex 0 14 0
    endloop
  endfacet
  facet normal -1 -0 0
    outer loop
      vertex 0 14 3
      vertex 0 0 0
      vertex 0 0 3
    endloop
  endfacet
  facet normal -1 0 0
    outer loop
      vertex 0 20 0
      vertex 0 31 3
      vertex 0 31 0
    endloop
  endfacet
  facet normal -1 -0 0
    outer loop
      vertex 0 31 3
      vertex 0 20 0
      vertex 0 20 3
    endloop
  endfacet
  facet normal 1 -0 0
    outer loop
      vertex 30.5 0 3
      vertex 30.5 14 0
      vertex 30.5 14 3
    endloop
  endfacet
  facet normal 1 0 0
    outer loop
      vertex 30.5 14 0
      vertex 30.5 0 3
      vertex 30.5 0 0
    endloop
  endfacet
  facet normal 1 -0 0
    outer loop
      vertex 30.5 20 3
      vertex 30.5 31 0
      vertex 30.5 31 3
    endloop
  endfacet
  facet normal 1 0 0
    outer loop
      vertex 30.5 31 0
      vertex 30.5 20 3
      vertex 30.5 20 0
    endloop
  endfacet
  facet normal 0 -1 0
    outer loop
      vertex 0 0 0
      vertex 8 0 3
      vertex 0 0 3
    endloop
  endfacet
  facet normal 0 -1 -0
    outer loop
      vertex 8 0 3
      vertex 0 0 0
      vertex 8 0 0
    endloop
  endfacet
  facet normal 0 -1 0
    outer loop
      vertex 14 0 0
      vertex 30.5 0 3
      vertex 14 0 3
    endloop
  endfacet
  facet normal 0 -1 -0
    outer loop
      vertex 30.5 0 3
      vertex 14 0 0
      vertex 30.5 0 0
    endloop
  endfacet
  facet normal 0 1 -0
    outer loop
      vertex 30.5 31 0
      vertex 14 31 3
      vertex 30.5 31 3
    endloop
  endfacet
  facet normal 0 1 0
    outer loop
      vertex 14 31 3
      vertex 30.5 31 0
      vertex 14 31 0
    endloop
  endfacet
  facet normal 0 1 -0
    outer loop
      vertex 8 31 0
      vertex 0 31 3
      vertex 8 31 3
    endloop
  endfacet
  facet normal 0 1 0
    outer loop
      vertex 0 31 3
      vertex 8 31 0
      vertex 0 31 0
    endloop
  endfacet
  facet normal -0.707107 0.707107 0
    outer loop
      vertex 14 2.85786 0
      vertex 18.1421 7 3
      vertex 18.1421 7 0
    endloop
  endfacet
  facet normal -0.707107 0.707107 0
    outer loop
      vertex 18.1421 7 3
      vertex 14 2.85786 0
      vertex 14 2.85786 3
    endloop
  endfacet
  facet normal 0.707107 -0.707107 0
    outer loop
      vertex 4 7 3
      vertex 11.0711 14.0711 0
      vertex 11.0711 14.0711 3
    endloop
  endfacet
  facet normal 0.707107 -0.707107 0
    outer loop
      vertex 11.0711 14.0711 0
      vertex 4 7 3
      vertex 4 7 0
    endloop
  endfacet
  facet normal 0.707107 0.707107 0
    outer loop
      vertex 8 3 3
      vertex 4 7 0
      vertex 4 7 3
    endloop
  endfacet
  facet normal 0.707107 0.707107 0
    outer loop
      vertex 4 7 0
      vertex 8 3 3
      vertex 8 3 0
    endloop
  endfacet
  facet normal -0.707107 -0.707107 0
    outer loop
      vertex 18.1421 7 0
      vertex 11.0711 14.0711 3
      vertex 11.0711 14.0711 0
    endloop
  endfacet
  facet normal -0.707107 -0.707107 0
    outer loop
      vertex 11.0711 14.0711 3
      vertex 18.1421 7 0
      vertex 18.1421 7 3
    endloop
  endfacet
  facet normal -1 0 0
    outer loop
      vertex 14 0 0
      vertex 14 2.85786 3
      vertex 14 2.85786 0
    endloop
  endfacet
  facet normal -1 -0 0
    outer loop
      vertex 14 2.85786 3
      vertex 14 0 0
      vertex 14 0 3
    endloop
  endfacet
  facet normal 1 -0 0
    outer loop
      vertex 8 0 3
      vertex 8 3 0
      vertex 8 3 3
    endloop
  endfacet
  facet normal 1 0 0
    outer loop
      vertex 8 3 0
      vertex 8 0 3
      vertex 8 0 0
    endloop
  endfacet
  facet normal -0.707107 -0.707107 0
    outer loop
      vertex 29.6421 20 0
      vertex 25.5 24.1421 3
      vertex 25.5 24.1421 0
    endloop
  endfacet
  facet normal -0.707107 -0.707107 0
    outer loop
      vertex 25.5 24.1421 3
      vertex 29.6421 20 0
      vertex 29.6421 20 3
    endloop
  endfacet
  facet normal 0.707107 0.707107 0
    outer loop
      vertex 25.5 10 3
      vertex 18.4289 17.0711 0
      vertex 18.4289 17.0711 3
    endloop
  endfacet
  facet normal 0.707107 0.707107 0
    outer loop
      vertex 18.4289 17.0711 0
      vertex 25.5 10 3
      vertex 25.5 10 0
    endloop
  endfacet
  facet normal -0.707107 0.707107 0
    outer loop
      vertex 25.5 10 0
      vertex 29.5 14 3
      vertex 29.5 14 0
    endloop
  endfacet
  facet normal -0.707107 0.707107 0
    outer loop
      vertex 29.5 14 3
      vertex 25.5 10 0
      vertex 25.5 10 3
    endloop
  endfacet
  facet normal 0.707107 -0.707107 0
    outer loop
      vertex 18.4289 17.0711 3
      vertex 25.5 24.1421 0
      vertex 25.5 24.1421 3
    endloop
  endfacet
  facet normal 0.707107 -0.707107 0
    outer loop
      vertex 25.5 24.1421 0
      vertex 18.4289 17.0711 3
      vertex 18.4289 17.0711 0
    endloop
  endfacet
  facet normal 0 -1 0
    outer loop
      vertex 29.6421 20 0
      vertex 30.5 20 3
      vertex 29.6421 20 3
    endloop
  endfacet
  facet normal 0 -1 -0
    outer loop
      vertex 30.5 20 3
      vertex 29.6421 20 0
      vertex 30.5 20 0
    endloop
  endfacet
  facet normal 0 1 -0
    outer loop
      vertex 30.5 14 0
      vertex 29.5 14 3
      vertex 30.5 14 3
    endloop
  endfacet
  facet normal 0 1 0
    outer loop
      vertex 29.5 14 3
      vertex 30.5 14 0
      vertex 29.5 14 0
    endloop
  endfacet
endsolid OpenSCAD_Model
